<?xml version="1.0" encoding="UTF-8"?>
<svg width="502px" height="519px" viewBox="0 0 502 519" version="1.1" xmlns="http://www.w3.org/2000/svg" xmlns:xlink="http://www.w3.org/1999/xlink">
    <title>Artboard</title>
    <defs>
        <circle id="path-1" cx="224.5" cy="224.5" r="224.5"></circle>
    </defs>
    <g id="Artboard" stroke="none" stroke-width="1" fill="none" fill-rule="evenodd">
        <g id="Combined-Shape" transform="translate(26.000000, 35.000000)">
            <mask id="mask-2" fill="white">
                <use xlink:href="#path-1"></use>
            </mask>
            <use id="Mask" fill="#0077AB" xlink:href="#path-1"></use>
            <path d="M329.222269,121.707745 C340.27469,148.101607 343.540962,175.594973 341.022252,203.888503 C338.009001,237.777415 327.221102,268.989524 308.24452,297.277297 C290.101758,324.425269 266.323527,345.114373 236.817818,359.148884 C236.185265,359.448226 235.558463,359.77635 234.586632,360.271415 C237.398617,361.699044 240.170348,362.228648 242.850071,362.959732 C261.958913,368.140643 281.447287,370.333895 301.223185,370.103632 C306.346862,370.04031 311.470539,369.971231 316.582715,370.149685 C318.969164,370.230277 320.222769,369.217121 321.148596,367.225348 C322.033531,365.256246 322.695135,363.194027 323.12101,361.077334 C324.7944,353.236889 325.950246,345.333122 325.909992,337.291197 C325.88124,330.458152 325.852488,323.61935 325.944495,316.786304 C325.944495,315.059334 325.691474,313.815915 323.822569,313.37266 C323.395825,313.245662 322.992056,313.051335 322.626469,312.797003 C319.337195,310.747665 319.176181,307.483691 322.724227,305.99274 C325.846737,304.680243 326.209017,302.70574 325.915743,299.959857 C325.618443,297.980983 326.04525,295.961204 327.117593,294.272369 C331.200433,288.19919 332.293024,281.504302 331.786982,274.29708 C331.447704,269.691826 331.717976,269.65153 336.341362,269.225544 C338.217427,269.021047 340.113026,269.085011 341.971081,269.41551 C344.438037,269.899062 345.668639,271.441822 346.076923,273.807771 C346.260938,274.895763 346.387449,276.150694 345.501875,276.841482 C344.616301,277.53227 343.977998,276.265826 343.236186,275.903162 C341.511043,275.045433 339.711143,274.590664 337.773231,275.028164 C334.788732,275.695925 333.989416,277.019936 333.673139,280.019108 C333.247604,284.048705 334.633469,287.422053 336.548379,290.703297 C338.745062,294.422039 340.182682,298.313479 339.504125,302.717253 C339.268356,304.2485 339.958413,304.939288 341.286774,305.526458 C342.960163,306.263299 344.524294,307.362803 344.443787,309.48122 C344.374781,311.42694 342.873906,312.417069 341.309776,313.205719 C340.343695,313.695027 339.44087,313.994369 339.486874,315.456537 C339.592026,318.920346 339.573718,322.387444 339.53442,325.855013 L339.502612,328.455733 C339.404988,336.257894 339.330789,344.058865 340.447204,351.82653 C341.177515,356.89231 341.902075,361.969602 343.897491,366.793606 C344.84057,369.096233 346.197683,370.362678 348.963664,370.213007 C353.161513,369.976988 357.382365,370.149685 361.769981,370.149685 C360.493374,366.051009 357.80215,362.631608 358.543962,358.170268 C358.825735,356.47208 358.969497,355.614352 360.947662,355.660404 C366.245769,355.783211 371.545795,355.783211 376.847737,355.660404 C378.837403,355.614352 379.234186,356.426028 379.199683,358.199051 C379.124927,361.652991 381.062839,362.913679 384.329111,361.825688 C385.75523,361.347893 385.15718,360.190823 385.185932,359.327338 C385.196388,358.979327 385.199809,358.664714 385.200574,358.380294 L385.200026,357.900253 L385.199775,357.826295 L385.199411,357.481276 C385.204656,355.835324 385.359778,355.711176 387.585995,355.701991 L388.576712,355.701131 C388.650515,355.701045 388.725927,355.70091 388.802984,355.7007 C393.742645,355.7007 398.688057,355.740996 403.627719,355.671917 C405.209101,355.671917 405.927911,356.10366 405.824402,357.807604 C405.703642,360.495921 405.732394,363.201508 405.789899,365.895581 C405.824402,367.398045 405.502375,368.710543 404.168264,369.689159 C405.375865,370.420243 406.370698,370.138172 407.308026,370.138172 L429,370.138 L429.00034,376.970374 C387.647871,376.977112 346.295673,376.985068 304.943745,376.994243 C277.950996,376.994243 251.556296,373.943263 226.070173,364.698215 C224.920077,364.289499 224.00575,364.548545 222.976415,364.928478 C204.735895,371.698201 185.857071,375.370891 166.466456,376.608553 C162.251354,376.879112 158.042004,376.942434 153.815401,376.942434 L19,376.942 L19.0003436,370.154109 C33.7793996,370.159934 48.5584055,370.166135 63.3373614,370.172711 C66.3276106,370.172711 67.4259522,369.332252 67.7019752,366.459725 C67.9664972,363.696573 68.6910576,360.979473 69.2488541,358.25086 C69.4558713,357.254974 69.4098675,356.523889 68.1907659,356.253331 C63.9296608,355.245931 60.140095,353.20235 56.396533,350.128343 C56.971581,352.862713 56.7933161,355.009912 55.027919,356.736882 C53.3749782,358.339998 50.9149485,358.777191 48.8117867,357.841603 C46.7086254,356.906016 45.3840865,354.785265 45.4648721,352.482779 C45.6028836,348.827359 48.391866,346.852856 53.4407867,347.23279 C49.7259772,342.420299 47.4027836,337.291197 46.8104842,330.94746 C44.9473289,333.215548 43.1531794,334.723768 40.4849571,334.401401 C38.2429516,334.138515 36.37397,332.561729 35.7353321,330.394328 C35.0966942,328.226928 35.8116381,325.887159 37.5522127,324.448295 C40.2606884,322.180208 43.4637053,322.8307 46.7529794,326.6876 C47.314976,320.620888 49.7441769,314.878364 53.7053088,310.2526 C50.8990749,310.747665 48.6736395,310.609507 46.9427452,308.72711 C45.946879,307.665757 45.4149637,306.250648 45.4648721,304.795374 C45.4670015,303.288489 46.080565,301.847124 47.1648368,300.801864 C48.2491092,299.756604 49.7110495,299.197144 51.2153513,299.2518 C54.9761647,299.332392 56.9255771,302.130083 56.6208017,307.310994 C61.3131928,303.603765 66.4368697,301.16298 72.7566464,300.719724 C71.2442704,299.038807 69.5191266,297.841441 69.3811151,295.619405 C69.1623301,293.604164 70.0404311,291.626345 71.6813068,290.438495 C74.0971722,288.61476 77.5254199,289.054285 79.4042004,291.428624 C81.5778815,294.082402 80.9683307,297.098843 77.2650221,300.639132 C83.1790857,301.208826 88.7871584,303.53864 93.3663639,307.328264 C93.1075923,302.239458 95.0512543,299.430253 98.6970581,299.269069 C100.248722,299.197353 101.759623,299.778601 102.863975,300.872094 C103.968327,301.965587 104.565454,303.471639 104.510793,305.025637 C104.447537,308.801945 101.687307,310.747665 96.4601217,310.488619 C100.275942,315.086667 102.616841,320.730434 103.176681,326.681844 C104.689057,324.954873 105.948412,323.492705 108.001333,323.227903 C110.481814,322.885798 112.892367,324.214648 113.929692,326.495993 C114.967017,328.777337 114.384956,331.46981 112.498208,333.117686 C109.818485,335.420313 106.419952,334.764064 103.354946,331.137427 C102.567131,333.969658 102.291108,336.824916 101.164014,339.44991 C99.8867328,342.25333 98.3116058,344.910914 96.4658722,347.376704 C99.404367,346.801047 101.670056,347.221276 103.320443,349.276371 C104.673558,351.03386 104.877,353.420403 103.840922,355.381991 C102.804842,357.34358 100.720052,358.518956 98.5072923,358.389017 C94.9189932,358.158755 93.0845904,355.510734 93.2916076,350.450711 C89.6458038,353.277185 85.8159847,355.355306 81.5146262,356.385732 C80.5255438,356.621751 80.6060505,357.324052 80.7498125,358.078163 C81.4341195,361.606939 82.1529294,365.129958 82.7797316,368.66449 C82.9752479,369.815804 83.5272939,370.132415 84.5968831,370.126658 L122.061255,370.126658 C123.406867,370.126658 123.717393,369.516462 123.700142,368.319096 C123.567881,358.797734 123.700142,349.276371 123.125094,339.766522 C122.814568,334.585611 122.670806,329.375917 123.884157,324.264085 C124.040944,323.565742 124.364549,322.915871 124.827236,322.370175 C125.666214,321.532215 126.171207,320.416781 126.247604,319.232845 C126.218852,313.660488 128.800817,308.681057 129.881907,303.269884 C129.996123,305.175506 130.60659,306.953977 131.247207,308.722354 L131.56787,309.606243 C132.36502,311.816572 133.087898,314.041612 132.826152,316.509989 C132.701915,317.873853 133.022728,319.241279 133.740478,320.407185 C136.887141,325.603702 136.831243,331.247657 136.488396,336.874554 L136.432302,337.762802 C136.384279,338.502777 136.333944,339.242034 136.287941,339.979515 C136.098175,343.024739 136.069422,346.069963 135.988916,349.109431 C135.816401,355.401359 135.816401,361.693287 135.695641,367.985215 C135.695641,369.366792 135.937161,370.092119 137.581798,370.126658 C162.751646,370.702315 187.702975,369.481923 211.900992,361.618452 C212.363905,361.468781 212.825381,361.316232 213.348675,361.142096 L213.894917,360.960071 C214.27594,360.833 214.693808,360.693563 215.167264,360.536217 C212.016001,359.02224 209.267272,357.761551 206.576048,356.391488 C164.390533,334.959788 135.609384,301.571696 118.800733,257.60879 C108.742141,231.493465 104.563806,203.478023 106.563714,175.560434 C108.651138,145.626283 117.046837,117.75874 135.666889,93.707801 C154.010918,70.0598218 178.16293,56.1692244 207.743395,52.1396272 C260.6018,44.9093784 308.641303,72.5524155 329.222269,121.707745 Z M329.808817,359.828159 C329.892268,360.991407 329.892268,362.159148 329.808817,363.322396 C329.808817,364.939991 329.906576,366.557587 329.826069,368.163669 C329.672563,370.300155 330.968835,370.191375 332.147016,370.101567 L332.373155,370.08503 C332.485066,370.077488 332.594925,370.071491 332.701308,370.069093 C333.977915,370.04031 335.737561,370.736855 335.639803,368.232748 C335.501792,365.187524 335.461538,362.12503 335.639803,359.085562 C335.760563,356.978658 334.926744,356.656291 333.017585,356.546916 C330.383865,356.374219 329.435036,357.231947 329.808817,359.828159 Z M76.8328021,368.029744 L76.6444263,368.087952 C76.5812119,368.107715 76.5176898,368.127518 76.4542045,368.146399 C75.5007572,368.414009 74.4921588,368.414009 73.5387116,368.146399 C72.860155,367.973702 72.1183432,367.547716 71.9573298,368.762352 C71.8161236,369.63767 72.1519409,370.035459 72.9599375,370.076957 L73.1074256,370.080606 L74.9878323,370.080606 L75.0165847,370.109389 L76.8358327,370.109339 C77.5977512,370.106151 78.2847737,370.038871 78.1793483,368.88324 C78.068249,367.746893 77.4864753,367.833159 76.8328021,368.029744 Z M368.233519,363.955618 C366.088591,364.134072 366.910909,365.751667 366.910909,366.77058 C366.942948,367.909146 366.07753,368.665518 365.838631,369.749486 L365.795316,370.005771 L374.829319,370.005771 C373.808212,368.972628 373.095268,367.674809 372.770648,366.258245 C372.115093,364.128315 370.263439,363.788678 368.233519,363.955618 Z M395.415514,363.936289 L395.203267,363.938348 C393.24427,363.974167 393.288996,365.072108 393.405615,366.132517 L393.431001,366.358772 C393.45608,366.583651 393.478123,366.8032 393.478123,367.006599 C393.462309,368.014478 392.65888,368.717619 392.525084,369.714614 L392.506292,369.994257 L401.183765,369.994257 C400.378698,368.750839 399.734645,367.950676 399.567881,366.816632 C399.191317,364.587169 397.632135,363.974823 395.624744,363.938079 L395.415514,363.936289 Z M379.504459,364.243446 C379.232984,364.588676 379.108946,365.027393 379.15943,365.463839 C379.320491,367.125337 378.661907,368.755618 377.405107,369.837702 L377.221518,369.988501 L388.463705,369.988501 C387.963414,368.750839 387.376865,367.795249 387.221602,366.580613 C386.945579,364.375848 381.131844,362.700686 379.504459,364.243446 Z M201.912409,59.8591842 C176.673556,65.2243051 156.230603,77.8484576 140.733061,98.1576277 C122.48104,122.081922 114.637386,149.701933 113.130761,179.325229 C111.613222,207.36554 116.531009,235.381312 127.506959,261.223915 C146.368531,305.900635 177.898408,337.958959 222.964914,356.379975 C224.101617,356.8912 225.405327,356.876465 226.530211,356.339679 C257.517628,343.283784 282.511126,322.91513 301.510709,295.233715 C321.119843,266.652358 331.988249,234.939428 334.564464,200.400023 C336.548379,173.821951 333.368364,147.96345 322.591966,123.382906 C311.418785,97.8813124 293.833819,78.4528972 268.106176,66.9973279 C261.027905,63.8563702 253.613076,61.5385937 246.007084,60.0894469 C247.450897,61.8217309 247.26797,63.3774347 247.091074,64.8923893 L247.047921,65.2703576 C246.760397,67.6190372 246.340612,69.9216642 246.185349,72.2242911 C246.104842,73.916722 245.437786,74.3196817 243.80465,74.0951756 C238.629219,73.3871178 233.453788,72.6848165 228.278357,72.2358043 C226.052921,72.040081 225.184599,71.3780757 225.817151,69.1215013 C225.995416,68.499792 226.363447,67.5039058 225.500875,67.1988077 C224.126118,66.7549321 222.65015,66.7328798 221.262772,67.1354855 C220.175931,67.4233139 220.687724,68.5746274 220.88324,69.2366326 C221.377781,70.9693594 220.865989,71.5853122 219.07759,71.8328446 C213.741145,72.5639286 208.421952,73.4274138 203.11426,74.3657343 C201.354613,74.6765889 200.980832,74.0318533 200.457538,72.4372841 C199.03717,68.0507797 200.998083,64.1996361 201.912409,59.8591842 Z M329.774315,348.038709 C329.952579,349.817488 329.814568,351.619294 329.814568,353.415343 C329.820318,354.146427 329.854821,354.76238 330.809401,355.027182 C334.029538,355.932925 335.497708,354.958395 335.562779,351.748976 L335.565047,351.521432 L335.565047,350.174396 C335.496041,344.602038 336.168847,345.310096 332.649554,345.010754 C330.2056,344.797761 329.538545,345.736082 329.774315,348.038709 Z M76.1666806,346.029667 L76.1666806,354.998399 L77.0177515,354.900537 C76.7417285,351.907122 76.9257438,348.873411 76.1666806,346.029667 Z M73.7802317,346.956474 C73.6204163,349.532778 72.7423501,352.029779 73.6513289,354.599474 L73.7802317,354.935077 L73.7802317,346.956474 Z M76.603717,331.71884 L75.8101508,332.029695 C77.1902659,339.179352 78.5876323,346.386574 79.9504959,353.57077 C80.1565547,354.640532 80.7459788,354.59496 81.3859859,354.430125 L81.5791727,354.378092 L81.7733978,354.324881 C85.4167065,353.342775 88.8097623,351.596375 91.7274773,349.201536 C92.5555463,348.522261 92.8775731,348.044466 91.9344945,347.106145 C86.7935661,342.011583 81.7101425,336.853698 76.603717,331.71884 Z M73.3949496,331.592196 L57.7536461,347.417 C56.9543295,348.234432 57.6156346,348.689201 58.1906826,349.14397 C61.1757937,351.613761 64.659997,353.406804 68.4035336,354.399716 C69.3523627,354.658762 69.9216601,354.54363 70.1286774,353.467152 L72.1729728,342.77001 L74.2230186,332.069991 L73.3949496,331.592196 Z M99.7781482,329.784633 L78.104592,329.784633 L77.828569,330.486935 C83.0270023,335.664008 88.2120179,340.844918 93.3836153,346.029667 C94.0909242,346.726212 94.5337111,346.605324 95.1087591,345.903022 C98.5282689,341.82314 100.645717,336.809683 101.187016,331.511604 C101.302025,330.36029 100.985749,329.784633 99.7781482,329.784633 Z M71.8423202,329.813416 L49.8409867,329.813416 C48.6937661,329.813416 48.6419608,330.523186 48.7159724,331.251154 L48.7397045,331.459043 C48.7524449,331.562638 48.7658683,331.66526 48.7771481,331.764893 C49.3437491,336.891314 51.4034914,341.737834 54.7001417,345.701543 C55.3211934,346.490192 55.8042337,346.737725 56.6208017,345.914536 C61.754063,340.772002 66.8911576,335.635225 72.032086,330.504204 C71.9688307,330.268185 71.9055755,330.032166 71.8423202,329.813416 Z M332.856571,331.557656 C331.321193,331.661274 329.527044,331.079861 329.745562,333.796961 C329.929583,336.203524 329.929583,338.620647 329.745562,341.02721 C329.590299,343.105331 330.395366,343.473751 332.321777,343.560099 C334.869239,343.675231 335.990583,342.995956 335.565047,340.336422 C335.493086,339.44753 335.493086,338.554266 335.565047,337.665374 C335.486375,336.415457 335.488295,335.161762 335.570798,333.912092 C335.864072,331.638248 334.581715,331.442525 332.856571,331.557656 Z M129.749646,329.105359 C127.892241,329.139898 126.362614,330.740224 126.408617,332.916206 C126.555463,334.709646 128.111091,336.054333 129.904909,335.938404 C131.77455,335.87176 133.26772,334.35681 133.309192,332.484464 C133.197133,330.595292 131.640106,329.117195 129.749646,329.105359 Z M329.757063,324.569183 C329.866334,325.369464 329.866334,326.180905 329.757063,326.981185 C329.400533,329.335621 330.32061,329.882495 332.678307,330.020653 C335.801456,330.204863 335.644134,328.55152 335.570616,326.778908 L335.560638,326.512336 C335.556383,326.378818 335.553546,326.245112 335.553546,326.111943 C335.551492,325.948909 335.550414,325.792322 335.550069,325.641918 L335.550992,325.208995 C335.573849,321.613215 335.92856,322.019846 332.35628,321.806031 C330.119343,321.6909 329.504042,322.554385 329.757063,324.569183 Z M54.8411256,311.754536 L54.7116426,311.910491 C51.4173846,315.860975 49.341553,320.685042 48.7368947,325.795332 C48.5528794,327.303553 48.9381615,327.87921 50.5540462,327.87921 C55.8588632,327.848988 61.1636803,327.864099 66.4709234,327.873543 L71.7790649,327.87921 L72.1815985,327.269014 C66.9294943,322.053563 61.6812234,316.820844 56.4367864,311.570854 C55.6996795,310.832967 55.2714827,311.241635 54.8411256,311.754536 Z M93.3606134,311.709012 C89.4790399,315.624917 85.5780586,319.495489 81.6746513,323.371727 L77.7710643,327.251744 L78.0700892,327.879494 C85.2236853,327.879494 92.3772814,327.821644 99.5251271,327.879494 C101.066256,327.890723 101.319277,327.211448 101.169764,325.893194 C100.589086,320.781611 98.539599,315.94842 95.2697725,311.97957 C94.700475,311.271512 94.2289357,310.83977 93.3606134,311.709012 Z M75.907909,304.185178 C75.9150971,305.97547 75.9186911,307.765763 75.9200389,309.569098 L75.9205443,312.285512 C75.9191404,316.834605 75.907909,321.50597 75.907909,326.50339 C81.6411368,320.787119 86.8223185,315.600451 92.0495041,310.442567 C92.8833236,309.619378 92.5440453,309.072504 91.807984,308.496847 C87.8349388,305.23354 83.0122258,303.176174 77.9090758,302.567582 C76.6324694,302.400642 75.907909,302.625148 75.907909,304.185178 Z M72.1068422,302.550313 C66.9982798,303.150192 62.1686893,305.203942 58.1906826,308.468064 C57.2878573,309.199148 57.1613468,309.717239 58.0469206,310.592238 C61.9069297,314.417477 65.7410618,318.271858 69.5735764,322.123811 L73.4064505,325.973786 L74.0392286,325.680201 C74.0392286,318.444196 74.0045004,311.202434 74.0392286,303.960672 C74.0505042,302.458208 73.1879323,302.423668 72.1068422,302.550313 Z M333.483374,315.013281 C333.08434,315.092872 332.628955,315.056113 332.175917,315.019609 L331.949865,315.001918 L331.725836,314.987509 C330.613461,314.929066 329.638053,315.115148 329.71681,317.367717 C329.791566,319.664588 330.625385,320.153896 332.557546,319.779719 C334.455205,320.056034 335.881323,319.917877 335.616801,317.315908 C335.467289,315.807688 335.467289,314.616078 333.483374,315.013281 Z M265.409961,245.149294 C266.208395,245.336446 267.118671,245.29364 268.024037,245.232376 L268.516684,245.198401 C270.070748,245.093066 271.546829,245.047392 272.343266,246.151299 C273.147283,247.245976 273.041214,248.995793 272.907529,250.745396 L272.863155,251.32769 C272.820179,251.908179 272.785029,252.480553 272.790389,253.02054 C272.84265,256.895347 272.813616,260.787531 272.813616,264.673922 C272.587151,271.444699 272.993626,278.261812 271.652258,284.94571 C270.200561,292.145091 265.578358,295.765053 257.936625,295.990939 C250.527164,296.205241 245.573974,292.614238 243.663541,285.634951 C242.577671,281.667473 242.461535,277.595739 242.386047,273.529798 C242.229264,264.946143 242.206037,256.356697 242.002799,247.76725 C241.956345,245.977541 242.478956,245.334636 244.255833,245.380971 C246.069077,245.443085 247.884245,245.342285 249.679373,245.07979 C251.665294,244.767026 252.129837,245.438891 252.10661,247.356023 C251.990474,257.393454 252.002088,267.425093 251.984668,277.474108 C251.930711,279.373684 252.125924,281.272147 252.565346,283.121249 C253.308615,285.907172 255.10872,287.314614 257.83791,287.279862 C260.381283,287.279862 261.937502,285.855045 262.442693,282.85482 C262.724159,281.06943 262.858168,279.264001 262.843361,277.456733 C262.843361,267.511972 262.843361,257.56142 262.669157,247.622452 C262.634317,245.404139 263.249836,244.645395 265.409961,245.149294 Z M195.460859,245.752388 C199.463302,246.597716 202.073098,249.008043 203.092107,253.034773 C204.047249,256.76376 204.251302,260.648165 203.692191,264.458124 C203.202216,268.151878 201.033697,271.404116 197.827226,273.254103 C196.383629,274.133701 196.168505,274.84766 196.87615,276.401236 C199.044376,281.181908 200.969171,286.076814 203.10343,290.874621 C203.765786,292.365368 203.879009,293.09075 202.016486,293.730458 C196.128877,295.780949 196.162844,295.872336 193.85875,290.006446 C192.454782,286.442361 191.028169,282.895411 189.658167,279.319902 C189.188291,278.074757 188.769365,276.99525 187.09366,277.332239 C185.665726,277.612492 185.805047,278.527255 185.940154,279.37644 L185.97427,279.596019 C186.000898,279.776995 186.02087,279.951994 186.018039,280.113825 C185.950105,283.860684 185.984072,287.607542 186.085973,291.34869 C186.125601,292.85086 185.802915,293.536261 184.087583,293.63336 C178.412599,293.972028 178.014758,294.060664 178.00044,289.152754 L178.000475,288.417122 C178.000652,288.331494 178.000866,288.244551 178.001099,288.156273 L178.001832,269.69573 L178.256584,269.707153 C178.256584,262.573271 178.33018,255.427965 178.205634,248.305507 C178.171667,246.346402 178.845345,245.661001 180.685223,245.449669 C185.63308,244.878502 190.558292,244.724286 195.460859,245.752388 Z M236.455146,252.997653 C238.481303,257.230403 239.168234,261.879583 238.966195,270.755809 C238.671796,274.74897 238.642934,279.489422 237.396068,284.092966 C235.57195,290.790067 230.538306,294.817455 223.73827,294.994295 C217.151817,295.16543 211.714096,291.480313 209.993883,284.783212 C207.384701,274.617766 207.182663,264.343934 210.3056,254.184192 C212.349074,247.538431 217.428898,245.233807 223.963398,245.011331 C229.787878,244.811673 233.667016,247.241797 236.455146,252.997653 Z M167.713606,244.837557 C172.969697,246.172829 172.969697,246.172829 171.734659,251.394089 C171.55084,252.170145 171.309576,252.940495 171.160223,253.727964 C170.953426,254.937698 170.453666,255.028999 169.29905,254.640971 C159.229183,251.217194 154.266055,254.698034 153.898416,265.357392 C153.737573,270.076498 153.548009,274.795603 154.329243,279.486178 C154.398175,279.925562 154.438386,280.370653 154.524551,280.804332 C155.351739,284.924276 157.448431,287.1212 160.412522,286.978542 C163.066417,286.847298 164.657605,284.633255 165.105666,280.450541 C165.134387,280.182345 165.163109,279.919856 165.174598,279.65166 C165.421605,273.996722 165.329696,275.086624 160.941003,275.520303 C158.608792,275.754261 158.241153,274.949673 158.246897,272.946764 L158.246934,272.263203 C158.251608,268.381033 158.412577,268.368514 162.842387,268.130651 C165.886899,267.982288 168.937155,267.908106 171.975922,267.725504 C173.320103,267.645616 173.946238,268.039351 173.969216,269.465924 C174.043893,275.086624 174.118569,280.690206 172.435471,286.145423 C170.625997,292.000082 166.909395,294.830404 160.808883,294.99018 C152.766776,295.195607 148.682535,292.194096 146.56861,284.467773 C145.310595,279.771492 145.098053,274.983911 145,269.682763 C144.990045,265.747623 145.374908,261.821272 146.149271,257.962034 C148.711257,246.600802 156.357002,241.944465 167.713606,244.837557 Z M293.018449,245.309571 C297.199045,245.736772 300.016527,248.144112 301.573556,252.110159 C302.458765,254.56903 302.93294,257.160035 302.976594,259.776697 C303.370129,269.683157 298.801702,276.004587 289.231388,278.030909 C286.191474,278.677484 285.102123,279.71085 285.375887,282.845587 C285.63254,285.789814 285.244708,288.780226 285.256115,291.753319 C285.256115,293.288935 284.623037,293.704591 283.191483,293.814278 C277.554204,294.239639 277.014541,294.315419 277.000302,289.690063 L277.000411,289.227626 C277.001613,288.829788 277.005272,288.400463 277.008992,287.937369 C277.054619,281.904588 277.008992,275.871808 277.008992,269.839028 L277.242831,269.810163 C277.242831,262.605465 277.311272,255.377675 277.197204,248.196069 C277.162984,246.227477 277.807469,245.448123 279.689592,245.309571 C284.123185,244.89681 288.584856,244.89681 293.018449,245.309571 Z M218.612266,258.291443 C216.599517,265.816264 216.388043,273.700951 217.994605,281.320571 C218.710399,284.612077 220.736556,286.180818 223.576639,286.180818 C226.647623,286.215046 228.414016,284.75469 229.349166,281.263526 C230.284315,277.772363 229.995689,274.184223 230.174637,270.601787 C229.810968,266.56299 230.215045,262.421512 228.927771,258.445465 C228.131163,256.009637 226.953567,254.001647 223.980716,253.91608 C221.371534,253.836216 219.403102,255.188186 218.612266,258.291443 Z M286.97284,252.970336 C285.678167,253.108888 285.107827,253.524543 285.153454,254.962019 C285.286531,259.53808 285.353073,264.135309 285.353073,268.753705 C285.353073,270.329733 285.929117,270.474058 287.292231,270.185408 C292.04887,269.18668 294.575479,265.832569 294.535555,260.330905 C294.501334,254.921608 291.917692,252.444993 286.97284,252.970336 Z M185.842543,255.719261 C186.085973,258.906375 185.950105,262.122048 185.984072,265.33201 C186.0237,269.495821 186.918164,270.021295 190.739449,268.147866 C191.21451,267.912831 191.669022,267.637691 192.098128,267.325384 C195.064578,265.137813 196.179827,260.979713 194.894743,256.947271 C193.977635,254.068587 192.115112,252.800595 188.480645,252.800595 C186.686056,252.526434 185.644402,253.217547 185.842543,255.719261 Z M194.361422,206.03954 C195.646924,207.049823 195.193217,208.028804 194.621997,208.965895 L194.471383,209.209397 C194.244663,209.573203 194.021542,209.930454 193.899185,210.280515 C193.374175,211.819579 192.501061,210.280515 191.787733,210.177911 C190.914619,210.024005 190.075745,209.607887 189.202631,209.607887 C187.490643,209.550885 185.681642,209.607887 184.928367,211.557368 C184.199923,213.349462 184.68252,215.405626 186.132465,216.68758 C187.010408,217.564539 188.111213,218.13119 189.224486,218.675528 L189.892262,219.001756 L190.224117,219.167183 L190.224117,219.167183 C195.034804,221.601183 196.826685,225.123929 195.65112,229.763921 C194.606807,233.748385 191.222777,236.005679 185.493323,236 C184.3147,235.882452 183.144501,235.692079 181.989454,235.429955 C178.565477,234.517917 178.371452,233.799687 179.957894,230.618956 C180.602743,229.336403 181.190526,228.834782 182.55441,229.706918 C183.711358,230.390068 185.023013,230.768609 186.366437,230.807064 C187.895813,230.903968 189.219751,230.664558 189.927372,229.096993 C190.589341,227.614932 190.189877,226.303878 189.202631,225.14103 C187.964293,223.676069 186.252304,222.860935 184.603089,221.994499 C179.917948,219.463595 178.325799,216.151758 179.267393,210.953143 C179.838055,207.669807 181.755482,205.446715 184.97402,204.523277 C188.300984,203.565638 191.553761,203.839249 194.361422,206.03954 Z M234.675257,209.807318 C235.80901,212.539604 236.156994,215.50492 235.938101,220.998619 C235.719208,223.247366 235.792172,225.991302 235.113043,228.653678 C233.928776,233.279338 230.740797,236.005798 226.51448,236 C222.288162,235.994146 219.218048,233.570627 218.09552,228.880883 C216.590472,222.865136 216.636928,216.54423 218.230224,210.553017 C219.509906,205.892402 221.889665,204.202929 226.738985,204.010679 C230.634157,203.847558 232.946564,205.542856 234.675257,209.807318 Z M320.470534,204.003717 C321.906488,203.979401 323.331046,204.261766 324.648678,204.831875 C327.567654,206.099814 327.945404,207.641902 326.108166,210.263452 C325.593052,210.994516 325.209579,210.897422 324.597166,210.503332 C323.534859,209.822038 322.294019,209.470246 321.031436,209.492408 L320.68359,209.500836 C319.174633,209.54486 317.666027,209.722905 316.99638,211.457142 C316.275971,213.154362 316.678852,215.119117 318.009436,216.397536 C319.00103,217.465574 320.252327,218.120583 321.523405,218.730036 L322.217241,219.060156 C322.563697,219.225166 322.908381,219.391757 323.246424,219.567383 C326.199742,221.092337 327.825211,223.416892 327.985468,226.775217 C328.220131,231.658496 325.604499,234.97113 320.733815,235.776442 C317.899334,236.28189 314.978051,235.925706 312.348911,234.754095 C310.601487,233.963281 310.881295,233.038332 311.372751,232.094853 L311.48471,231.884933 C311.541693,231.779867 311.599629,231.674679 311.656027,231.569526 L311.766034,231.359314 C311.854769,231.184255 311.934619,231.009589 311.994055,230.836049 C312.457657,229.482438 313.0529,228.631434 314.661198,229.693762 C315.896046,230.438276 317.310754,230.833166 318.753489,230.836049 C320.212978,230.898875 321.43208,230.516209 322.084557,229.122618 C322.668747,227.870972 322.443122,226.391725 321.512208,225.370204 C320.138572,223.622504 318.123906,222.805768 316.263774,221.754864 C312.2001,219.470289 310.586078,216.231904 311.215661,211.748426 C311.925373,206.670958 315.285058,203.883777 320.470534,204.003717 Z M172.445246,204.758076 C175.461805,205.986007 175.879658,207.665131 174.070868,210.326599 C173.498466,211.120471 173.137852,210.89773 172.582622,210.509361 C171.680434,209.916463 170.633918,209.578927 169.554615,209.532728 C167.751549,209.45277 165.839726,209.407079 164.975399,211.457438 C164.111071,213.507797 164.76361,215.284013 166.349164,216.763241 C167.814513,218.133954 169.709164,218.767909 171.432094,219.68743 C174.809266,221.492202 176.200204,224.342144 175.976967,228.065915 C175.905509,231.780569 173.231252,234.935333 169.571787,235.621973 C166.510307,236.324723 163.30447,236.042836 160.413354,234.816679 C158.386749,233.973359 158.969589,232.860173 159.542102,231.725181 L159.652079,231.505299 C159.742446,231.321949 159.828148,231.138448 159.898192,230.955836 C160.430526,229.567989 161.042996,228.557088 162.760203,229.733617 C163.833305,230.390393 165.061951,230.751072 166.320543,230.778786 C167.820237,230.881589 169.222622,230.778786 169.983917,229.22531 C170.808176,227.551898 170.281566,226.124071 169.079522,224.844739 C167.768721,223.439758 166.051515,222.657309 164.391548,221.800613 C160.556454,219.81879 158.88504,216.717551 159.176965,212.411226 C159.537579,207.133979 162.920475,203.935648 168.260987,204.004184 C169.693027,203.963475 171.117915,204.220203 172.445246,204.758076 Z M301.609169,204.300225 C305.204339,204.831859 307.190523,206.790816 307.679702,210.315781 C308.304437,214.828893 308.463567,219.237989 303.819315,222.115747 C302.681827,222.82074 303.28888,223.675978 303.636609,224.479208 C304.815354,227.218279 305.994098,229.963129 307.255354,232.667529 C307.791683,233.823256 308.039219,234.863409 306.394871,235.025211 C306.061373,235.059037 305.709993,235.213867 305.353474,235.390514 L305.139048,235.498326 C304.10066,236.024402 303.040481,236.567119 302.269266,234.707386 C301.090522,231.962536 300.035546,229.177236 298.88627,226.426607 C298.562115,225.65227 298.538541,224.392528 297.277284,224.577445 C296.211394,224.731969 296.193268,225.435916 296.267888,226.145586 L296.293421,226.369248 C296.319809,226.591833 296.345421,226.809281 296.340182,227.00447 C296.281245,229.078999 296.340182,231.153528 296.340182,233.228056 C296.340182,235.074481 295.32483,235.092169 294.275787,235.021012 L294.033549,235.003806 C293.630311,234.97514 293.233261,234.95313 292.898249,235.036768 C291.460181,235.389265 290.98279,234.678493 291.000471,233.268507 C291.065302,228.761174 291.000471,224.253841 291.000471,219.74073 L291.094771,219.74073 C291.094771,215.325855 291.14192,210.905201 291.094771,206.484548 C291.094771,205.022554 291.560375,204.381126 293.080955,204.230882 C295.915304,203.901354 298.780784,203.924653 301.609169,204.300225 Z M244.761495,205.726324 L244.761196,216.817247 L244.726386,216.783235 C244.726386,220.3262 244.778601,223.869165 244.697377,227.41213 C244.662568,229.005047 245.138304,229.736315 246.878803,229.424534 C247.853483,229.254472 248.886179,229.373515 249.849255,229.163772 C252.529623,228.596897 253.016963,229.883702 252.999558,232.145531 C252.999558,233.721442 252.593442,234.356341 250.910959,234.413029 C247.650424,234.486722 244.389889,234.707803 241.140958,234.979903 C239.678938,235.093278 238.98854,234.758822 239.000144,233.154568 C239.046557,224.124258 239.000144,215.08828 239.000144,206.057971 C239.000144,202.85513 241.587686,204.470723 243.020697,204.096585 C244.617464,203.681853 244.753082,204.673293 244.761495,205.726324 Z M288.490105,205.505159 C288.495876,206.902701 289.10766,208.599306 286.660523,208.444023 L286.395032,208.444023 C279.919353,208.898368 279.953982,208.892617 280.265646,215.253447 C280.329133,216.587726 280.629254,217.312378 282.118313,217.042071 C282.735869,216.932798 283.376511,216.950052 284.00561,216.886789 C287.076075,216.576224 287.670544,217.22611 287.46854,220.372017 C287.405053,221.29221 287.052989,221.671789 286.210342,221.758057 L285.136834,221.86733 C280.369534,222.350431 279.625004,223.408652 280.479193,228.233911 C280.646568,229.177108 281.056348,229.435912 281.898995,229.384151 L282.707012,229.331148 L284.325816,229.245018 C284.865109,229.212996 285.40348,229.172507 285.939079,229.108094 C287.768661,228.889548 288.9576,228.987318 288.998001,231.448833 C289.038402,233.674548 288.478561,234.450961 286.210342,234.433707 C283.236136,234.448195 280.265011,234.626755 277.310612,234.968569 C275.446402,235.16411 275.001992,234.450961 275.001992,232.7256 C275.094337,228.239662 275.001992,223.747973 275.001992,219.256284 L275.03085,219.262035 C275.03085,214.862365 275.094337,210.462696 275.001992,206.063026 C274.967363,204.400928 275.371372,203.624516 277.218268,203.601511 C280.277189,203.561253 283.341882,203.359961 286.38926,203.026391 C288.542048,202.796343 288.484333,204.107617 288.490105,205.505159 Z M203.52784,205.747508 C203.470597,208.828987 203.61943,211.904662 203.590808,214.986141 C203.590808,216.384703 204.111724,217.185539 205.468396,216.727089 C205.910103,216.577826 206.467102,216.65494 207.021053,216.723499 L207.257929,216.751673 C208.319926,216.869934 209.307706,216.831546 209.372405,214.951322 C209.481168,211.695748 209.463995,208.428569 209.372405,205.172995 C209.315161,203.432047 209.984911,202.811108 211.564832,203.147692 C212.904331,203.432047 215.039515,202.265611 214.999444,205.155586 C214.907854,214.394218 214.860152,223.630917 214.856335,232.865681 C214.856335,234.758609 213.856509,234.701612 212.855613,234.615967 L212.633579,234.597245 C212.338594,234.573734 212.05001,234.560204 211.793806,234.606629 C210.608865,234.821346 209.504065,234.786527 209.538411,232.946925 C209.624277,229.9641 209.492616,226.969669 209.584206,223.986844 C209.630001,222.385171 209.275091,221.700398 207.489093,221.897706 C202.657739,222.425793 203.57936,221.862887 203.482046,226.203651 C203.4477,228.014238 203.482046,229.824824 203.482046,231.63541 C203.482046,234.182998 201.272445,235.651198 198.902563,234.716889 C198.121189,234.407871 198.090063,233.811596 198.120921,233.214505 L198.134938,232.976304 C198.141968,232.857861 198.147807,232.740913 198.146949,232.627751 L198.146949,218.769802 L198.072532,218.752392 C198.072532,214.405825 198.249987,210.047651 198.009564,205.718492 C197.866455,203.014219 199.349063,203.223133 201.135061,203.031629 C203.424802,202.787896 203.562187,203.977544 203.52784,205.747508 Z M128.685753,204.1634 C132.457776,204.517824 134.478503,206.260889 135.403937,209.880656 C137.418807,217.747693 134.302788,223.093095 126.401454,225.033709 C124.91373,225.399753 124.462727,226.004015 124.521299,227.410088 C124.591585,229.153154 124.386584,230.861359 124.521299,232.575374 C124.656014,234.289388 123.935581,234.789067 122.178428,234.957564 C119.595412,235.207403 118.880836,234.376542 119.015551,231.866527 C119.22641,227.799373 119.074123,223.73222 119.074123,219.630205 L119.132695,219.601153 C119.132695,215.249299 119.191267,210.885824 119.132695,206.54559 C119.097552,204.924539 119.718413,204.302845 121.293994,204.1634 C123.75302,203.945533 126.226728,203.945533 128.685753,204.1634 Z M261.234185,204.006788 C268.009482,204.258054 271.489625,207.307509 272.547543,213.937502 C273.171887,217.849256 273.281726,221.749588 272.021474,225.587104 C270.044383,231.611775 262.899104,235.866164 256.568943,234.849679 C255.253105,234.646734 255.25762,233.887732 255.286652,233.105457 L255.294203,232.891932 C255.296274,232.820832 255.297574,232.749939 255.297129,232.679655 L255.297129,219.545301 L255.065891,219.579564 C255.065891,215.387992 255.198853,211.184998 255.008081,207.016269 C254.909805,204.863376 255.701797,204.160974 257.719356,204.160974 C258.87555,204.160974 260.066429,203.961103 261.234185,204.006788 Z M145.384816,203.107477 L145.71657,203.155997 C146.658956,203.296262 147.614429,203.444051 148.392541,203.186055 C149.62062,202.778805 150.645897,203.077073 151.012067,204.83226 C152.889864,214.009711 154.842772,223.173779 156.870793,232.324462 C157.334087,234.431264 156.470534,234.557633 155.564096,234.469276 L155.382618,234.449264 L155.196505,234.425929 C154.765611,234.37095 154.365133,234.321656 154.138599,234.475427 C152.448582,234.951508 151.828909,234.291878 151.716241,232.966884 C151.695504,232.789568 151.657768,232.614745 151.603573,232.444916 C150.26846,227.104787 150.026224,226.972861 144.578736,227.970909 C143.761895,228.120043 143.299957,228.401102 143.176022,229.238544 C143.052088,230.075987 142.888719,230.821655 142.759151,231.61321 C142.195812,235.198152 141.863442,235.375965 138.35384,234.670448 C137.27223,234.45822 136.849725,234.096858 137.046894,232.949676 C138.629877,223.617356 139.93119,214.227676 141.846542,204.969922 C142.292401,202.817881 143.786966,202.880981 145.384816,203.107477 Z M223.657646,212.166755 C222.268692,217.15883 222.127685,222.435865 223.247923,227.500176 C223.51362,229.197838 224.95998,230.421384 226.615507,230.348977 C228.467678,230.360629 229.500404,229.224604 229.983091,227.476873 C230.611706,225.164043 230.398426,222.792956 230.510679,220.538383 C230.353525,217.730363 230.583643,214.980601 229.713684,212.347353 C229.242222,210.885086 228.405939,209.754886 226.75021,209.719932 C225.275871,209.621369 223.956786,210.665023 223.657646,212.166755 Z M260.419069,211.362027 C260.419069,216.429222 260.436411,221.498322 260.471097,226.569325 C260.494221,229.224749 261.332462,229.681596 263.64485,228.191132 C267.015155,226.03253 267.333108,222.520518 267.593252,219.282614 C267.572134,217.055377 267.197602,214.845185 266.483306,212.732568 C266.032072,211.159679 264.855587,209.889555 263.309553,209.306215 C261.118566,208.506732 260.419069,208.997843 260.419069,211.362027 Z M146.325087,211.187645 C145.739214,214.502999 145.142075,217.818354 144.578736,221.133708 C144.477335,221.713034 144.150599,222.69961 144.843506,222.791385 C146.147318,222.93291 147.465236,222.849526 148.741811,222.544741 C149.530486,222.366928 149.119248,221.483598 149.000947,220.910007 C148.550276,218.753306 148.084582,216.601704 147.615551,214.450101 L146.91096,211.22206 L146.325087,211.187645 Z M125.282732,209.229912 C123.718866,209.584335 124.574014,211.013649 124.433442,211.966525 C124.381848,212.684532 124.371529,213.404725 124.402485,214.123606 L124.433442,214.662467 L124.433442,214.685708 C124.489111,215.763765 124.489111,216.843943 124.433442,217.922 C124.193297,220.280949 125.388162,220.205416 127.022315,219.531431 C130.138334,218.224131 131.508914,212.698613 129.306614,210.23508 C128.211322,209.009123 126.70017,208.904539 125.282732,209.229912 Z M297.135835,209.148497 C295.503274,209.477879 296.35197,210.893644 296.204627,211.847118 C296.164787,212.385268 296.154827,212.92501 296.174747,213.463956 L296.204627,214.002548 L296.251777,213.979434 C296.192727,214.517219 296.192727,215.059665 296.251777,215.597451 C296.331342,215.95457 296.288377,216.378259 296.23475,216.806733 L296.198647,217.092413 C296.087093,217.995018 296.038817,218.857755 297.106366,219.099301 C298.791971,219.480691 300.471681,218.38853 301.444145,216.787849 C302.638578,214.902547 302.659047,212.52104 301.497189,210.61627 C300.554193,208.923131 298.768396,208.819115 297.135835,209.148497 Z M242.279835,143.889474 C242.019372,153.052232 241.96728,162.220692 241.949916,171.38345 C241.949916,174.673376 242.17565,177.963302 242.4419,181.241824 C242.621329,183.425606 243.339047,185.444035 245.474836,186.601496 C249.468589,188.773874 253.363945,186.441846 253.76332,181.544019 C254.235028,175.061154 254.275631,168.554831 253.884869,162.066744 C253.884869,155.8347 253.954325,149.608358 253.838564,143.382016 C253.803836,141.460517 254.417369,140.867532 256.304272,141.067094 C258.544247,141.295165 260.813161,141.346481 263.070499,141.397797 C264.453842,141.426306 264.928462,142.019291 264.93425,143.364911 C264.938109,144.601925 264.94433,145.839095 264.951444,147.076365 L264.984518,152.644581 C265.036388,162.544193 265.004258,172.445067 264.1355,182.319461 C263.082075,194.293195 250.32522,200.684889 239.669425,194.755039 C235.693037,192.542749 233.615128,188.996243 232.723769,184.708506 C231.965747,180.772236 231.578233,176.775436 231.56616,172.768982 C231.456187,163.155783 231.681921,153.536883 231.016295,143.946492 C230.871594,141.836834 231.687709,141.312271 233.5804,141.340779 C235.479062,141.399094 237.379448,141.311401 239.264262,141.078498 C241.625785,140.747794 242.349291,141.420604 242.279835,143.889474 Z M205.768036,141.578652 C207.840156,142.855531 207.863438,146.356839 208.742342,148.899042 C211.437262,156.727873 214.039052,164.591371 216.687407,172.477979 C217.75839,172.148648 217.269463,171.397543 217.269463,170.900657 C217.269463,161.881613 217.304386,152.862568 217.205437,143.843524 C217.205437,141.907983 217.6478,141.191544 219.766483,141.208877 C226.328399,141.265742 226.97719,141.220848 226.999378,146.32596 L226.999109,147.032159 C226.997432,147.4417 226.993628,147.880336 226.989799,148.350157 C226.867567,163.320269 226.745335,178.296158 226.786079,193.26627 C226.786079,195.768029 226.041047,196.732911 223.596412,196.496024 C223.324122,196.486561 223.051514,196.500091 222.781534,196.536468 C215.895811,197.039131 215.872529,197.044908 213.649075,190.464068 C211.082208,182.860569 208.591008,175.233959 206.024141,167.624682 C205.733113,166.648244 205.628343,165.527364 204.464231,164.46426 C204.464231,174.517519 204.400205,184.166337 204.510795,193.809377 C204.510795,195.912472 203.887995,196.548023 201.821696,196.732911 C195.412303,197.317254 195.087104,197.426701 195.075625,191.796745 L195.075667,190.758733 C195.075667,175.245514 195.128052,159.726518 195,144.213299 C195,141.769317 195.698467,141.0471 198.049974,141.220432 C200.663405,141.411098 203.870534,140.405772 205.768036,141.578652 Z M169.73391,141.556496 C171.718233,142.68689 171.776254,146.135748 172.634967,148.586858 C175.14148,155.911354 177.589972,163.253152 180.073277,170.583415 C180.098271,170.65706 180.119557,170.733434 180.139945,170.811005 L180.201225,171.045778 C180.297534,171.398723 180.432562,171.744865 180.862365,171.944503 C181.523806,171.269727 181.181481,170.439232 181.187283,169.701016 C181.187283,161.050036 181.227898,152.399057 181.12346,143.748077 C181.12346,141.758352 181.64565,141.147016 183.711202,141.170085 C190.404732,141.238245 190.984464,141.182478 190.999677,146.696443 L190.999728,147.182841 C190.998834,147.599762 190.995869,148.045929 190.992855,148.523418 C190.888417,163.466543 190.778177,178.409668 190.789781,193.352793 C190.789781,195.53284 190.20957,196.444077 187.946745,196.3518 C185.341596,196.247988 182.27808,197.776328 180.247341,196.467146 C178.84683,195.564262 178.40667,193.712274 177.986683,191.840043 L177.860353,191.278696 C177.711479,190.625249 177.553559,189.980701 177.346284,189.384877 C174.514852,181.13761 171.840078,172.838437 169.10148,164.585403 L168.451643,164.631542 L168.451643,181.270259 C168.451643,185.595748 168.399424,189.921238 168.49806,194.235193 C168.538675,195.826974 168.033891,196.369102 166.409299,196.542121 C159.484839,197.380185 159.092856,197.483253 159.080469,191.44816 L159.080793,190.429346 C159.080934,190.339944 159.081085,190.249399 159.08123,190.157698 C159.08123,174.851232 159.121844,159.550533 159,144.249834 C159,141.867931 159.615024,141.025902 162.017099,141.204689 C164.622248,141.400778 167.749588,140.426101 169.73391,141.556496 Z M146.88089,140.842178 C150.507749,158.186291 154.174694,175.520742 157.881726,192.845533 C158.242503,194.526613 157.813006,195.210639 156.106474,195.164265 C155.104315,195.100499 154.119337,195.24542 153.140085,195.309185 C149.131451,195.61062 149.131451,195.61062 148.238099,191.587621 C147.757063,189.379029 147.127135,187.199421 146.766358,184.973439 C146.502933,183.327139 145.72984,182.938752 144.212285,183.089469 C141.18863,183.396701 138.153522,183.59959 135.118414,183.744511 C133.898644,183.796682 133.400428,184.289413 133.22863,185.48356 C132.793407,188.434146 132.174932,191.361545 131.745435,194.312131 C131.545004,195.680182 131.046788,196.184507 129.643766,195.94104 C127.198499,195.512074 123.882787,196.439567 122.491218,194.781674 C121.633888,193.737123 122.061615,191.979652 122.546054,190.23368 L122.684947,189.735769 C122.869366,189.073975 123.045038,188.423861 123.144053,187.825479 C125.600773,172.64938 128.160572,157.490671 130.588658,142.308776 C130.920802,140.192933 131.733982,139.410361 133.812745,139.410361 C137.386155,139.410361 140.965292,139.224863 144.532976,139.01038 C145.958904,138.923427 146.577379,139.369783 146.88089,140.842178 Z M313.756401,147.320419 C313.716879,159.333066 313.812862,171.339923 313.711233,183.35257 C313.711233,185.668261 314.422637,186.310865 316.590726,186.067717 C319.413759,185.74931 322.236792,185.714574 325.025948,185.564054 C325.556678,185.535108 326.234206,185.29775 326.589908,185.564054 C328.17363,186.667867 328.085262,188.130576 327.904586,189.619229 L327.829529,190.228827 C327.741292,190.973596 327.683833,191.7135 327.854627,192.406921 C328.114346,193.448982 328.057885,194.577881 326.437464,194.670509 C319.492804,195.056458 312.550023,195.496439 305.609129,195.990453 C304.074856,196.09802 304.00252,195.279119 304.045463,194.417571 L304.057821,194.201807 C304.068822,194.022115 304.079956,193.84377 304.079045,193.674762 L304.079045,168.202162 L304.039522,168.161637 C304.039522,159.761469 304.090337,151.372879 304,142.966921 C304,141.091211 304.321826,140.303876 306.38264,140.176513 C313.841092,139.713375 313.784632,139.59759 313.756401,147.320419 Z M292.102317,141.871994 C295.607068,158.436502 299.178852,174.981992 302.817663,191.508464 C303.283048,193.602325 302.955555,194.275555 300.680339,194.361135 C294.021312,194.680634 294.027057,194.777625 292.636648,188.290652 C291.32093,182.197347 291.32093,182.197347 284.995141,182.705122 C278.491242,183.230014 278.491242,183.230014 277.35938,189.699871 C276.382646,195.313927 276.3769,195.365275 270.665879,194.726277 C266.442941,194.258439 266.678506,195.148472 267.442657,190.538556 C270.074093,174.632064 272.843421,158.742688 275.388675,142.819081 C275.79086,140.314436 276.618211,139.173367 279.232411,139.395876 C280.829658,139.544215 282.455633,139.424402 284.070116,139.424402 L284.058625,139.13343 C285.586927,139.13343 287.149701,139.350233 288.655021,139.087787 C291.062383,138.659887 291.688641,139.829482 292.102317,141.871994 Z M139.533637,151.682249 L138.995335,151.688045 C138.094347,156.885869 137.200995,162.083692 136.315277,167.281516 C135.049695,174.840581 135.049695,174.840581 142.4943,173.895698 C142.671825,173.85512 142.84935,173.85512 143.026875,173.85512 C143.977494,173.791355 144.223739,173.240656 144.040487,172.382726 C142.536295,165.488364 141.034012,158.588204 139.533637,151.682249 Z M284.51252,151.66236 L283.949461,151.730824 C282.966982,157.316353 282.041957,162.913293 280.990532,168.487412 C280.000781,173.755403 279.93521,173.826658 284.997255,173.53917 L285.242197,173.525228 L287.902361,173.405416 C288.712476,173.365479 289.287025,173.177202 289.05146,172.13883 C287.534649,165.311438 286.021671,158.485948 284.51252,151.66236 Z M274.422327,93.0004646 C278.357062,93.0184479 278.564982,93.5803329 280.210865,98.4465792 C282.100583,104.033751 284.025514,109.690545 286.525576,115.271915 L286.525576,112.48123 C286.525576,106.778021 286.566657,101.074813 286.478626,95.3716041 C286.478626,93.6310522 286.95399,92.9812461 288.826102,93.0508682 C295.029307,93.27714 293.937731,92.3140345 293.908388,97.9998376 C293.855569,108.947909 293.679509,119.901783 293.691246,130.855656 C293.691246,132.880499 293.104377,133.449079 291.085548,133.541908 C285.533767,133.791387 285.563111,133.878415 283.755554,128.540722 C281.766068,122.646053 279.717895,116.768789 277.693197,110.879922 L277.10046,110.972751 C277.10046,117.575245 277.012429,124.177739 277.153278,130.780233 C277.200227,132.880499 276.566409,133.779784 274.447812,133.681152 C273.805689,133.677975 273.165456,133.750034 272.540487,133.89582 C270.685981,134.261336 269.92892,133.698558 270.005213,131.673716 C270.175405,126.974226 270.169537,122.263132 270.163668,117.55784 C270.163668,110.224314 270.163668,102.890789 270.011082,95.5630648 C269.97587,93.7412871 270.416022,93.0334627 272.411376,93.0160572 C272.983858,93.0093195 273.500882,93.0024189 273.969536,93.0005137 L274.422327,93.0004646 Z M238.969502,92.000782 C241.011645,92.02593 240.371739,92.6760088 240.388755,96.5921649 C240.434595,105.468738 240.457514,114.351121 240.388755,123.233504 C240.388755,125.307416 240.961744,125.975482 242.995855,125.690828 C245.029966,125.406173 246.92656,125.504931 248.874722,125.284179 C250.450442,125.1099 250.908833,125.772158 250.931752,127.253523 C251.03489,133.022134 251.56777,131.819614 246.680174,132.237882 C243.293809,132.534155 239.901715,132.720052 236.50962,132.865284 C233.314009,133.005023 233.138218,133.555136 233.133842,130.68293 L233.133969,130.313866 L233.134132,130.216072 L233.134132,130.216072 L233.134715,112.619957 L233.060227,112.614148 C233.060227,106.723542 233.157635,100.827127 233.002928,94.9423305 C232.945629,92.7464242 233.724894,92.1364502 235.736085,92.089976 C237.05396,92.0622499 238.01194,92.0072179 238.705812,92.0006464 L238.969502,92.000782 Z M223.746798,92.5944678 C225.842555,92.9621998 227.698987,94.1429261 228.896918,95.8700402 C232.720049,101.457444 231.153384,111.089118 225.634981,114.967029 C224.302146,115.902087 224.465828,116.636366 224.980255,117.835306 C226.733985,121.673061 228.364953,125.568181 230.136221,129.394462 C230.720797,130.685187 230.562962,131.287525 229.113212,131.689084 C223.097918,133.41005 224.79319,134.25906 222.454884,128.883909 C221.570225,126.856993 220.745322,124.804582 219.93341,122.745371 L218.71944,119.653794 C218.34531,118.712999 217.84842,118.104924 216.70265,118.345859 C215.55688,118.586794 215.790711,119.533326 215.790711,120.279078 C215.790711,123.325188 215.74979,126.371298 215.872551,129.411672 C215.942701,131.035117 215.358124,131.603036 213.703772,131.643192 C208.202906,131.786605 209.06808,132.543831 209.027159,127.357986 L209.027159,112.311004 L209.22007,112.339687 C209.22007,106.603133 209.307756,100.866579 209.167458,95.1300247 C209.120692,93.145177 209.863104,92.4223712 211.757132,92.2617476 C215.773173,91.9462372 219.771677,91.7741405 223.746798,92.5944678 Z M260.804475,93.000288 C263.617691,93.0134593 263.582469,93.493144 263.614851,97.4517039 C263.695569,108.23631 263.754763,119.020915 263.996918,129.794109 C264.045349,132.105096 263.539514,132.858306 261.306305,132.943899 C260.614094,132.969145 260.035602,132.994544 259.552193,132.999232 L259.243803,132.99906 C257.279051,132.974406 257.110703,132.449055 257.102805,129.591289 L257.102608,129.153825 C257.102704,129.078038 257.102848,129.000795 257.103016,128.922068 L257.103568,112.909639 L257.038993,112.909639 C257.038993,107.117906 257.098187,101.326173 257.001325,95.5344407 C256.974419,93.7541248 257.345723,93.0465634 259.186102,93.0180327 C259.653986,93.0108249 260.072022,93.0032378 260.445565,93.000802 L260.804475,93.000288 Z M175.58368,93.0040011 C177.990644,93.1126759 180.403326,93.1698731 182.810291,93.1298351 C184.285343,93.1298351 184.588358,93.8219218 184.599792,95.1031402 C184.702703,106.885774 184.836105,118.668408 185,130.451041 C185,131.93817 184.536902,132.430066 183.06185,132.573059 C178.141322,133.043922 177.828872,133.134366 177.813717,128.887622 L177.81341,107.617899 L177.436071,107.543542 C176.578482,111.513032 175.7228,115.482521 174.869023,119.45201 C174.194387,122.592139 173.411123,125.715109 172.925156,128.883837 C172.639293,130.759907 171.781705,131.309 169.986486,131.469152 C164.840956,131.909571 164.886694,132.001087 163.766112,127.110722 C162.41684,121.225125 161.038981,115.339528 159.586798,109.093588 C158.85499,110.105979 159.072245,110.889582 159.072245,111.604547 L159.067278,114.244592 L159.045243,119.524282 C159.033041,123.043764 159.036308,126.562445 159.117983,130.079259 C159.163721,132.206997 158.483368,133.036357 156.408004,132.847606 C155.694668,132.77885 154.975292,132.807714 154.269751,132.933402 C152.617464,133.219388 152.12578,132.590219 152.131497,130.931498 C152.131497,119.148865 152.087664,107.366231 152,95.5835971 C152,93.9191571 152.571726,93.5244961 154.132536,93.4101016 C161.902287,92.8381291 161.879418,92.7809318 163.77183,100.348128 C165.298337,106.468234 166.870582,112.571181 168.883056,118.697006 L171.993243,103.01352 C172.564969,100.210855 173.136694,97.4196289 173.622661,94.6055241 C173.828482,93.3929424 174.371622,92.9525236 175.58368,93.0040011 Z M205.2135,93.1494378 C205.493255,97.7143128 205.573185,97.7143128 201.028593,98.028148 C194.888758,98.4269032 194.708175,98.4386313 194.702864,104.371021 L194.702909,105.367291 C194.70838,109.114703 194.858826,109.104506 198.996086,108.824077 L199.52705,108.789841 C203.523551,108.487418 204.465583,109.571576 203.866108,113.725612 C203.723376,114.672824 203.260924,114.866831 202.467333,114.94101 C200.600396,115.095074 198.744878,115.323318 196.877941,115.43744 C195.547677,115.523031 195.108062,116.099347 195.033841,117.445985 C194.628482,124.978029 194.588517,124.949498 201.999171,124.56719 C203.180994,124.510129 204.89378,123.728394 205.476127,124.93238 C206.269718,126.575735 205.995672,128.601398 205.727336,130.438761 C205.596022,131.306087 204.556932,131.077843 203.900364,131.117786 C199.332934,131.420209 194.816889,131.602804 190.289424,131.979406 C188.462452,132.127764 188.005709,131.482976 188.045674,129.771148 C188.125604,123.802574 188.045674,117.833999 188.045674,111.859719 L188.034256,111.859719 C188.034256,105.982443 188.07993,100.09946 188,94.2221834 C188,92.5103553 188.47958,91.8541545 190.23804,91.7970936 C194.422948,91.6487352 198.607855,91.4033731 202.798472,91.0267709 C204.562641,90.8670003 205.110733,91.4033731 205.2135,93.1494378 Z M217.363222,98.3367584 C216.194069,98.5088551 215.603646,98.8932042 215.650412,100.189665 C215.773173,103.390663 215.825785,106.597396 215.773173,109.80413 C215.743945,111.507887 216.538969,111.725876 217.965336,111.433311 C221.28824,110.762105 223.66351,107.878524 223.635729,104.549447 C223.653266,100.28145 221.116204,97.8089955 217.363222,98.3367584 Z M214.465705,57.9825432 L205.029169,59.2547446 C206.794566,60.5154329 207.294858,61.7588515 207.432869,63.255559 C207.484624,63.9290774 207.432869,64.8904242 208.582965,65.0803909 C210.687641,65.4257849 213.223602,63.8369723 213.269606,61.7588515 C213.31561,60.4578672 213.758397,59.4044154 214.465705,57.9825432 Z M233.367531,58.0861614 C234.715233,59.2317543 235.298843,61.0424164 234.874156,62.7604942 C234.759147,63.3706904 234.494625,64.1305573 235.380198,64.6313786 C237.134095,65.6157517 240.262355,64.8731545 240.871906,62.9562175 C241.237846,61.8101372 241.931705,60.9066892 242.681298,59.7830989 L242.907576,59.4389548 L233.367531,58.0861614 Z M217.76073,57.7350108 C218.211085,58.2278497 218.617111,58.7595166 218.974081,59.3238234 C219.241607,59.8914462 219.434884,60.4912391 219.549129,61.1083593 C220.348446,65.0976606 220.336945,65.0746343 224.48304,64.9134504 C225.44337,64.8731545 225.949412,64.4011159 226.679723,63.8254592 C228.669389,62.3402648 228.92241,59.9512893 230.47504,57.9710301 C226.251693,57.5250177 221.997691,57.4460495 217.76073,57.7350108 Z" fill="#FFFFFF" fill-rule="nonzero" mask="url(#mask-2)"></path>
        </g>
    </g>
</svg>