<svg xmlns="http://www.w3.org/2000/svg" xmlns:xlink="http://www.w3.org/1999/xlink" version="1.0" x="0" y="0" width="2400" height="575.3575037153759" viewBox="46.965511627197266 95.5046580505371 246.06897674560548 58.990680084228515" preserveAspectRatio="xMidYMid meet" color-interpolation-filters="sRGB"><g><defs><linearGradient id="92" x1="0%" y1="0%" x2="100%" y2="0%"><stop offset="0%" stop-color="#fa71cd"></stop> <stop offset="100%" stop-color="#9b59b6"></stop></linearGradient><linearGradient id="93" x1="0%" y1="0%" x2="100%" y2="0%"><stop offset="0%" stop-color="#f9d423"></stop> <stop offset="100%" stop-color="#f83600"></stop></linearGradient><linearGradient id="94" x1="0%" y1="0%" x2="100%" y2="0%"><stop offset="0%" stop-color="#0064d2"></stop> <stop offset="100%" stop-color="#1cb0f6"></stop></linearGradient><linearGradient id="95" x1="0%" y1="0%" x2="100%" y2="0%"><stop offset="0%" stop-color="#f00978"></stop> <stop offset="100%" stop-color="#3f51b1"></stop></linearGradient><linearGradient id="96" x1="0%" y1="0%" x2="100%" y2="0%"><stop offset="0%" stop-color="#7873f5"></stop> <stop offset="100%" stop-color="#ec77ab"></stop></linearGradient><linearGradient id="97" x1="0%" y1="0%" x2="100%" y2="0%"><stop offset="0%" stop-color="#f9d423"></stop> <stop offset="100%" stop-color="#e14fad"></stop></linearGradient><linearGradient id="98" x1="0%" y1="0%" x2="100%" y2="0%"><stop offset="0%" stop-color="#009efd"></stop> <stop offset="100%" stop-color="#2af598"></stop></linearGradient><linearGradient id="99" x1="0%" y1="0%" x2="100%" y2="0%"><stop offset="0%" stop-color="#ffcc00"></stop> <stop offset="100%" stop-color="#00b140"></stop></linearGradient><linearGradient id="100" x1="0%" y1="0%" x2="100%" y2="0%"><stop offset="0%" stop-color="#d51007"></stop> <stop offset="100%" stop-color="#ff8177"></stop></linearGradient><linearGradient id="102" x1="0%" y1="0%" x2="100%" y2="0%"><stop offset="0%" stop-color="#a2b6df"></stop> <stop offset="100%" stop-color="#0c3483"></stop></linearGradient><linearGradient id="103" x1="0%" y1="0%" x2="100%" y2="0%"><stop offset="0%" stop-color="#7ac5d8"></stop> <stop offset="100%" stop-color="#eea2a2"></stop></linearGradient><linearGradient id="104" x1="0%" y1="0%" x2="100%" y2="0%"><stop offset="0%" stop-color="#00ecbc"></stop> <stop offset="100%" stop-color="#007adf"></stop></linearGradient><linearGradient id="105" x1="0%" y1="0%" x2="100%" y2="0%"><stop offset="0%" stop-color="#b88746"></stop> <stop offset="100%" stop-color="#fdf5a6"></stop></linearGradient></defs><g fill="#333" class="iconlettersvg-g iconlettersvg" transform="translate(49.378719638392795,97.91868515033275)"><g><g class="tp-name" transform="translate(0,0)"><g transform="scale(1)"><g transform="translate(0, 0)"><g class="name-imagesvg"><g><rect fill="#333" fill-opacity="0" stroke-width="2" x="0" y="0" width="29.253989140996573" height="40" class="image-rect"></rect> <svg x="0" y="0" width="29.253989140996573" height="40" filtersec="colorsb8315659100" class="image-svg-svg primary" style="overflow: visible;"><svg xmlns="http://www.w3.org/2000/svg" viewBox="0 0 89.22 122"><path d="M15.71 90.55h15.41V31.42H15.71A15.71 15.71 0 0 1 0 15.71v90.55a15.71 15.71 0 0 1 15.71-15.71z" fill="#00d5ff"></path><path d="M73.47 79.9a15.71 15.71 0 0 1-15.71-15.71v15.4a11 11 0 0 1-11 11H31.12v15.71a15.56 15.56 0 0 1-31 1.59A15.71 15.71 0 0 0 15.71 122H46.8a42.37 42.37 0 0 0 42.38-42.38V64.19A15.71 15.71 0 0 1 73.47 79.9z" fill="#ffd100"></path><path d="M15.56 121.82a15.56 15.56 0 0 0 15.56-15.56V90.55H15.71A15.71 15.71 0 0 0 0 106.26a10.46 10.46 0 0 0 .08 1.59 15.56 15.56 0 0 0 15.48 13.97z" fill="#45ae17"></path><path d="M46.8 0H15.71A15.71 15.71 0 0 0 .08 14.12a15.56 15.56 0 0 1 31 1.59v15.71H46.8a11 11 0 0 1 11 11v21.77a15.71 15.71 0 1 1 31.42 0V42.37A42.37 42.37 0 0 0 46.83 0z" fill="#ff009b"></path><path d="M15.71 31.42h15.41V15.71a15.56 15.56 0 0 0-31-1.59 4.81 4.81 0 0 0-.12 1.3v.29a15.71 15.71 0 0 0 15.71 15.71z" fill="#11009a"></path><circle cx="73.47" cy="64.19" r="15.71" fill="#ee2e0b"></circle></svg></svg> </g></g></g><g transform="translate(29.253989140996573, 0)"><g class="name-imagesvg"><g><rect fill="#333" fill-opacity="0" stroke-width="2" x="0" y="0" width="21.270200958212662" height="40" class="image-rect"></rect> <svg x="0" y="0" width="21.270200958212662" height="40" filtersec="colorsb2481416566" class="image-svg-svg primary" style="overflow: visible;"><svg xmlns="http://www.w3.org/2000/svg" viewBox="0 0 65.28 122.76"><path d="M32.41.4H15.74a15.71 15.71 0 0 0 0 31.42h1V16.11A15.71 15.71 0 0 1 32.41.4zm15.7 15.71v15.71h1.46a15.71 15.71 0 1 0 0-31.42H32.41a15.7 15.7 0 0 1 15.7 15.7z" fill="#f0f"></path><path d="M16.7 106.66V91h-1a15.71 15.71 0 0 0 0 31.42h16.71a15.72 15.72 0 0 1-15.71-15.76zM49.57 91h-1.46v15.71a15.71 15.71 0 0 1-15.68 15.69h17.14a15.71 15.71 0 1 0 0-31.42z" fill="#ffd100"></path><path d="M16.7 31.82h31.42V91H16.7z" fill="#00d5ff"></path><path d="M48.11 16.11a15.71 15.71 0 0 0-31.41-.8v16.51h31.41z" fill="#2300fd"></path><path d="M48.11 106.66V91H16.7v15.71a15.71 15.71 0 0 0 31.41.79c.01-.32.01-.58 0-.84z" fill="#45ae17"></path></svg></svg> </g></g></g><g transform="translate(50.524190099209235, 0)"><g class="name-imagesvg"><g><rect fill="#333" fill-opacity="0" stroke-width="2" x="0" y="0" width="29.299178827004354" height="40" class="image-rect"></rect> <svg x="0" y="0" width="29.299178827004354" height="40" filtersec="colorsb6954948354" class="image-svg-svg primary" style="overflow: visible;"><svg xmlns="http://www.w3.org/2000/svg" viewBox="0 0 89.36 122"><path d="M73.61 74A15.72 15.72 0 0 1 57.9 58.33v24a8.22 8.22 0 0 1-8.19 8.2H42.4a11 11 0 0 1-11-11v-1.15A15.71 15.71 0 0 1 0 80a13.88 13.88 0 0 1 0-1.58v1.21A42.43 42.43 0 0 0 42.4 122h7.31a39.66 39.66 0 0 0 39.61-39.65v-24A15.71 15.71 0 0 1 73.61 74z" fill="#ffd100"></path><path d="M49.71 0H42.4A42.42 42.42 0 0 0 0 42.37v36a15.71 15.71 0 0 1 31.42 0v-36a11 11 0 0 1 11-10.95h7.31a8.22 8.22 0 0 1 8.19 8.2v18.71a15.71 15.71 0 1 1 31.42 0V39.62A39.67 39.67 0 0 0 49.71 0z" fill="#00d5ff"></path><circle cx="73.61" cy="58.33" r="15.71" fill="#45ae17"></circle><ellipse cx="15.72" cy="78.58" rx="15.71" ry="16.41" fill="#45ae17"></ellipse></svg></svg> </g></g></g><g transform="translate(79.82336892621359, 0)"><g class="name-imagesvg"><g><rect fill="#333" fill-opacity="0" stroke-width="2" x="0" y="0" width="35.193023198408596" height="40" class="image-rect"></rect> <svg x="0" y="0" width="35.193023198408596" height="40" filtersec="colorsb8739915209" class="image-svg-svg primary" style="overflow: visible;"><svg xmlns="http://www.w3.org/2000/svg" viewBox="0 0 108.23 122.99"><path d="M0 15.62v90.69a15.71 15.71 0 0 0 31.42 0V58.88l-28-33.45A15.63 15.63 0 0 1 0 15.62z" fill="#00d5ff"></path><path d="M108.23 15.76a15.71 15.71 0 1 0-31.42 0v48.38l27.92 33.32a15.61 15.61 0 0 1 3.27 11.15 16.09 16.09 0 0 0 .19-2.3z" fill="#f0f"></path><path d="M92.52 122a15.71 15.71 0 0 1-15.71-15.71V64.14L28 6A15.71 15.71 0 0 0 .08 14.13a15.71 15.71 0 0 1 31.34 1.63v43.12L80.09 117a15.7 15.7 0 0 0 28-8.34A15.71 15.71 0 0 1 92.52 122z" fill="#ffd100"></path><path d="M15.71.05A15.72 15.72 0 0 0 .08 14.13v.13A12.26 12.26 0 0 0 0 15.62a15.65 15.65 0 0 0 3.38 9.81l28 33.45V15.76A15.71 15.71 0 0 0 15.71.05z" fill="#45ae17"></path><path d="M104.73 97.46L76.81 64.14v42.17a15.66 15.66 0 1 0 27.92-8.85z" fill="#ee2e0b"></path></svg></svg> </g></g></g><g transform="translate(115.01639212462219, 0)"><g class="name-imagesvg"><g><rect fill="#333" fill-opacity="0" stroke-width="2" x="0" y="0" width="29.28589068066684" height="40" class="image-rect"></rect> <svg x="0" y="0" width="29.28589068066684" height="40" filtersec="colorsb5347860457" class="image-svg-svg primary" style="overflow: visible;"><svg xmlns="http://www.w3.org/2000/svg" viewBox="0 0 89.3 121.97"><path d="M49.69 49.7h-7.31a11 11 0 0 1-11-11v-23A15.69 15.69 0 1 0 0 15.71v23a42.42 42.42 0 0 0 42.38 42.41h7.31a40.23 40.23 0 0 0 8.19-.85V41.51a8.19 8.19 0 0 1-8.19 8.19z" fill="#00d5ff"></path><path d="M29.43 106.26a15.71 15.71 0 0 1 15.71-15.71H15.71a15.71 15.71 0 0 0 0 31.42h29.43a15.73 15.73 0 0 1-15.71-15.71z" fill="#ffd100"></path><path d="M73.59 0a15.71 15.71 0 0 0-15.71 15.71v11.52a15.71 15.71 0 1 1 31.42 0v14.28a39.68 39.68 0 0 1-31.42 38.76v2.08a8.21 8.21 0 0 1-8.19 8.2h-4.55a15.71 15.71 0 0 1 0 31.42h4.55A39.66 39.66 0 0 0 89.3 82.35V15.71A15.71 15.71 0 0 0 73.59 0z" fill="#f0f"></path><path d="M89.3 41.51V27.23a15.71 15.71 0 1 0-31.42 0v53A39.67 39.67 0 0 0 89.3 41.51z" fill="#2300fd"></path><circle cx="45.14" cy="106.26" r="15.71" fill="#ee2e0b"></circle></svg></svg> </g></g></g><g transform="translate(144.30228280528902, 0)"><g class="name-imagesvg"><g><rect fill="#333" fill-opacity="0" stroke-width="2" x="0" y="0" width="33.81149536270003" height="40" class="image-rect"></rect> <svg x="0" y="0" width="33.81149536270003" height="40" filtersec="colorsb6524761379" class="image-svg-svg primary" style="overflow: visible;"><svg xmlns="http://www.w3.org/2000/svg" viewBox="0 0 102.84 121.68"><path d="M39.4 60.84A15.55 15.55 0 0 1 55 45.28H38.85a7.08 7.08 0 1 1-.53-14.15h38.53A15.56 15.56 0 0 0 76.82 0h-38a38.2 38.2 0 0 0-1.24 76.4H55a15.56 15.56 0 0 1-15.6-15.56z" fill="#ffd100"></path><path d="M44.11 106.12a15.55 15.55 0 0 1 15.54-15.56h-33a15.56 15.56 0 0 0 0 31.12h33a15.57 15.57 0 0 1-15.54-15.56z" fill="#f0f"></path><path d="M64.65 45.28H55a15.56 15.56 0 0 1 0 31.12h9.68a7.08 7.08 0 0 1 0 14.16h-5a15.56 15.56 0 0 1 0 31.12h5a38.2 38.2 0 0 0 0-76.4z" fill="#00d5ff"></path><path d="M70.52 60.84A15.56 15.56 0 1 0 55 76.4a15.56 15.56 0 0 0 15.52-15.56z" fill="#45ae17"></path><path d="M75.22 106.12a15.56 15.56 0 1 0-15.57 15.56 15.56 15.56 0 0 0 15.57-15.56z" fill="#2300fd"></path></svg></svg> </g></g></g><g transform="translate(178.11377816798904, 0)"><g class="name-imagesvg"><g><rect fill="#333" fill-opacity="0" stroke-width="2" x="0" y="0" width="29.311640012782355" height="40" class="image-rect"></rect> <svg x="0" y="0" width="29.311640012782355" height="40" filtersec="colorsb3375198282" class="image-svg-svg primary" style="overflow: visible;"><svg xmlns="http://www.w3.org/2000/svg" viewBox="0 0 89.4 122"><path d="M15.81 43.76a15.71 15.71 0 0 1 15.71 15.71V15.71a15.71 15.71 0 0 0-31.42 0v43.76a15.71 15.71 0 0 1 15.71-15.71z" fill="#f0f"></path><path d="M73.69 0A15.71 15.71 0 0 0 58 15.71v66.64a8.22 8.22 0 0 1-8.19 8.2h-5a15.71 15.71 0 0 1 0 31.42h5A39.66 39.66 0 0 0 89.4 82.35V15.71A15.71 15.71 0 0 0 73.69 0z" fill="#00d5ff"></path><path d="M29 106.26a15.71 15.71 0 0 1 15.75-15.71h-2.27a11 11 0 0 1-11-11V59.47A15.71 15.71 0 1 1 .1 61.05a13.88 13.88 0 0 1 0-1.58v20.12A42.43 42.43 0 0 0 42.48 122h2.27A15.71 15.71 0 0 1 29 106.29z" fill="#ffd100"></path><path d="M15.81 76a16.1 16.1 0 0 0 0-32.2A16 16 0 0 0 0 59.87 16 16 0 0 0 15.81 76z" fill="#ee2e0b"></path><circle cx="44.75" cy="106.25" r="15.71" fill="#45ae17"></circle></svg></svg> </g></g></g><g transform="translate(207.4254181807714, 0)"><g class="name-imagesvg"><g><rect fill="#333" fill-opacity="0" stroke-width="2" x="0" y="0" width="33.81149536270003" height="40" class="image-rect"></rect> <svg x="0" y="0" width="33.81149536270003" height="40" filtersec="colorsb7818919146" class="image-svg-svg primary" style="overflow: visible;"><svg xmlns="http://www.w3.org/2000/svg" viewBox="0 0 102.84 121.68"><path d="M39.4 60.84A15.55 15.55 0 0 1 55 45.28H38.85a7.08 7.08 0 1 1-.53-14.15h38.53A15.56 15.56 0 0 0 76.82 0h-38a38.2 38.2 0 0 0-1.24 76.4H55a15.56 15.56 0 0 1-15.6-15.56z" fill="#ffd100"></path><path d="M44.11 106.12a15.55 15.55 0 0 1 15.54-15.56h-33a15.56 15.56 0 0 0 0 31.12h33a15.57 15.57 0 0 1-15.54-15.56z" fill="#f0f"></path><path d="M64.65 45.28H55a15.56 15.56 0 0 1 0 31.12h9.68a7.08 7.08 0 0 1 0 14.16h-5a15.56 15.56 0 0 1 0 31.12h5a38.2 38.2 0 0 0 0-76.4z" fill="#00d5ff"></path><path d="M70.52 60.84A15.56 15.56 0 1 0 55 76.4a15.56 15.56 0 0 0 15.52-15.56z" fill="#45ae17"></path><path d="M75.22 106.12a15.56 15.56 0 1 0-15.57 15.56 15.56 15.56 0 0 0 15.57-15.56z" fill="#2300fd"></path></svg></svg> </g></g></g></g></g></g> <g fill-rule="" class="tp-slogan" fill="#333" transform="translate(38.78205108642578,46.008216857910156)"> <g transform="scale(1, 1)"><g transform="scale(1)"><path d="M1.08-7.87L1.08 0L2.08 0L2.08-3.53L5.08-3.53L5.08-4.37L2.08-4.37L2.08-7.03L5.62-7.03L5.62-7.87ZM6.23-7.87L6.23 0L10.67 0L10.67-0.85L7.23-0.85L7.23-7.87ZM11.29-7.87L11.29 0L15.95 0L15.95-0.85L12.29-0.85L12.29-3.71L15.27-3.71L15.27-4.56L12.29-4.56L12.29-7.03L15.83-7.03L15.83-7.87ZM18.23-4.07L15.94 0L17.00 0L18.14-2.12C18.23-2.32 18.33-2.51 18.44-2.72C18.54-2.92 18.65-3.14 18.76-3.38L18.81-3.38C18.94-3.14 19.05-2.92 19.16-2.72C19.27-2.51 19.38-2.32 19.48-2.12L20.63 0L21.74 0L19.44-4.02L21.59-7.87L20.54-7.87L19.49-5.86C19.40-5.67 19.31-5.49 19.22-5.32C19.14-5.15 19.04-4.95 18.93-4.72L18.88-4.72C18.76-4.95 18.65-5.15 18.56-5.32C18.47-5.49 18.37-5.67 18.27-5.86L17.20-7.87L16.10-7.87ZM22.22-7.87L22.22 0L23.22 0L23.22-7.87ZM24.60-7.87L24.60 0L27.11 0C27.55 0 27.95-0.05 28.32-0.14C28.69-0.24 29.01-0.38 29.27-0.58C29.53-0.77 29.74-1.01 29.88-1.30C30.03-1.58 30.10-1.92 30.10-2.30C30.10-2.85 29.94-3.28 29.62-3.59C29.30-3.90 28.85-4.10 28.27-4.19L28.27-4.24C28.74-4.36 29.08-4.57 29.31-4.89C29.53-5.21 29.64-5.56 29.64-5.95C29.64-6.30 29.58-6.59 29.44-6.83C29.31-7.08 29.13-7.28 28.89-7.43C28.66-7.58 28.37-7.69 28.04-7.76C27.71-7.84 27.34-7.87 26.94-7.87ZM26.76-4.51L25.60-4.51L25.60-7.08L26.81-7.08C27.43-7.08 27.89-6.99 28.20-6.80C28.50-6.61 28.66-6.30 28.66-5.87C28.66-5.43 28.51-5.09 28.22-4.86C27.93-4.63 27.44-4.51 26.76-4.51ZM26.97-0.79L25.60-0.79L25.60-3.77L26.97-3.77C27.66-3.77 28.19-3.65 28.56-3.43C28.93-3.20 29.11-2.84 29.11-2.35C29.11-1.82 28.93-1.42 28.55-1.17C28.17-0.92 27.65-0.79 26.97-0.79ZM30.88-7.87L30.88 0L35.32 0L35.32-0.85L31.88-0.85L31.88-7.87ZM35.94-7.87L35.94 0L40.60 0L40.60-0.85L36.94-0.85L36.94-3.71L39.92-3.71L39.92-4.56L36.94-4.56L36.94-7.03L40.48-7.03L40.48-7.87ZM46.49-3.20L44.12-3.20L44.49-4.40C44.64-4.84 44.77-5.28 44.90-5.72C45.03-6.15 45.15-6.60 45.27-7.06L45.32-7.06C45.45-6.60 45.58-6.15 45.71-5.72C45.83-5.28 45.97-4.84 46.11-4.40ZM46.74-2.40L47.48 0L48.55 0L45.89-7.87L44.76-7.87L42.09 0L43.11 0L43.87-2.40ZM48.89-7.87L48.89 0L49.84 0L49.84-4.12C49.84-4.53 49.83-4.95 49.80-5.36C49.77-5.77 49.74-6.18 49.71-6.58L49.76-6.58L50.61-4.96L53.46 0L54.50 0L54.50-7.87L53.55-7.87L53.55-3.80C53.55-3.39 53.56-2.97 53.59-2.54C53.62-2.11 53.64-1.70 53.67-1.30L53.62-1.30L52.77-2.93L49.92-7.87ZM55.88-7.87L55.88 0L57.90 0C58.49 0 59.01-0.09 59.47-0.27C59.92-0.45 60.31-0.71 60.62-1.05C60.93-1.39 61.17-1.81 61.33-2.30C61.49-2.79 61.57-3.35 61.57-3.97C61.57-5.23 61.25-6.19 60.62-6.86C59.99-7.54 59.06-7.87 57.85-7.87ZM57.78-0.82L56.88-0.82L56.88-7.06L57.78-7.06C58.70-7.06 59.39-6.79 59.85-6.26C60.31-5.74 60.54-4.97 60.54-3.97C60.54-2.97 60.31-2.20 59.85-1.64C59.39-1.09 58.70-0.82 57.78-0.82ZM64.13-7.87L64.13 0L68.79 0L68.79-0.85L65.13-0.85L65.13-3.71L68.12-3.71L68.12-4.56L65.13-4.56L65.13-7.03L68.67-7.03L68.67-7.87ZM73.03-3.20L70.67-3.20L71.04-4.40C71.18-4.84 71.32-5.28 71.45-5.72C71.58-6.15 71.70-6.60 71.82-7.06L71.87-7.06C72.00-6.60 72.12-6.15 72.25-5.72C72.38-5.28 72.52-4.84 72.66-4.40ZM73.28-2.40L74.03 0L75.10 0L72.43-7.87L71.30-7.87L68.64 0L69.66 0L70.42-2.40ZM75.46-1.72L74.86-1.02C75.20-0.66 75.61-0.38 76.08-0.17C76.56 0.04 77.07 0.14 77.62 0.14C78.04 0.14 78.41 0.09 78.74-0.03C79.06-0.15 79.34-0.31 79.58-0.51C79.81-0.71 79.99-0.95 80.11-1.22C80.23-1.50 80.30-1.79 80.30-2.10C80.30-2.39 80.25-2.64 80.17-2.86C80.09-3.08 79.97-3.27 79.83-3.44C79.68-3.60 79.51-3.75 79.31-3.87C79.11-3.99 78.90-4.10 78.68-4.20L77.56-4.68C77.40-4.74 77.24-4.81 77.09-4.89C76.94-4.97 76.80-5.05 76.67-5.15C76.54-5.25 76.44-5.37 76.37-5.50C76.29-5.63 76.25-5.80 76.25-5.99C76.25-6.35 76.39-6.63 76.65-6.83C76.92-7.04 77.28-7.14 77.72-7.14C78.08-7.14 78.41-7.07 78.71-6.94C79.00-6.81 79.26-6.63 79.50-6.40L80.04-7.04C79.76-7.33 79.42-7.57 79.02-7.75C78.62-7.93 78.19-8.02 77.72-8.02C77.36-8.02 77.03-7.96 76.73-7.86C76.43-7.76 76.17-7.61 75.95-7.42C75.73-7.23 75.55-7.01 75.43-6.76C75.31-6.50 75.24-6.22 75.24-5.93C75.24-5.64 75.29-5.39 75.39-5.17C75.48-4.95 75.61-4.76 75.76-4.60C75.91-4.44 76.08-4.30 76.28-4.19C76.47-4.08 76.66-3.98 76.84-3.90L77.97-3.41C78.15-3.32 78.32-3.24 78.48-3.16C78.64-3.08 78.78-2.99 78.90-2.89C79.01-2.79 79.11-2.67 79.17-2.53C79.24-2.39 79.28-2.22 79.28-2.02C79.28-1.63 79.13-1.32 78.84-1.09C78.56-0.85 78.15-0.73 77.63-0.73C77.22-0.73 76.83-0.82 76.45-1.00C76.07-1.18 75.74-1.42 75.46-1.72ZM82.26-3.05L82.26 0L83.27 0L83.27-3.05L85.63-7.87L84.59-7.87L83.58-5.65C83.46-5.36 83.33-5.08 83.19-4.80C83.06-4.52 82.92-4.23 82.79-3.94L82.74-3.94C82.60-4.23 82.47-4.52 82.35-4.80C82.23-5.08 82.11-5.36 81.98-5.65L80.96-7.87L79.89-7.87ZM87.57-7.87L87.57 0L92.23 0L92.23-0.85L88.57-0.85L88.57-3.71L91.56-3.71L91.56-4.56L88.57-4.56L88.57-7.03L92.11-7.03L92.11-7.87ZM92.04-7.87L94.56 0L95.73 0L98.22-7.87L97.20-7.87L95.94-3.62C95.81-3.15 95.68-2.72 95.57-2.32C95.46-1.92 95.33-1.48 95.19-1.02L95.14-1.02C94.99-1.48 94.86-1.92 94.75-2.32C94.64-2.72 94.51-3.15 94.37-3.62L93.11-7.87ZM98.53-7.87L98.53 0L103.18 0L103.18-0.85L99.52-0.85L99.52-3.71L102.51-3.71L102.51-4.56L99.52-4.56L99.52-7.03L103.06-7.03L103.06-7.87ZM104.08-7.87L104.08 0L105.02 0L105.02-4.12C105.02-4.53 105.01-4.95 104.98-5.36C104.95-5.77 104.92-6.18 104.89-6.58L104.94-6.58L105.79-4.96L108.65 0L109.68 0L109.68-7.87L108.73-7.87L108.73-3.80C108.73-3.39 108.75-2.97 108.77-2.54C108.80-2.11 108.83-1.70 108.85-1.30L108.80-1.30L107.95-2.93L105.11-7.87ZM112.70-7.03L112.70 0L113.70 0L113.70-7.03L116.08-7.03L116.08-7.87L110.32-7.87L110.32-7.03ZM120.00-7.03L120.00 0L121.01 0L121.01-7.03L123.39-7.03L123.39-7.87L117.63-7.87L117.63-7.03ZM124.03-7.87L124.03 0L125.02 0L125.02-7.87ZM125.95-3.94C125.95-3.30 126.04-2.72 126.21-2.21C126.38-1.71 126.62-1.28 126.93-0.93C127.24-0.58 127.60-0.32 128.02-0.13C128.44 0.05 128.90 0.14 129.40 0.14C129.90 0.14 130.35 0.04 130.74-0.16C131.13-0.36 131.49-0.64 131.80-1.00L131.23-1.61C130.98-1.33 130.71-1.11 130.42-0.96C130.14-0.81 129.81-0.73 129.42-0.73C129.05-0.73 128.71-0.81 128.41-0.96C128.11-1.11 127.85-1.33 127.65-1.61C127.44-1.89 127.28-2.23 127.16-2.62C127.04-3.02 126.99-3.46 126.99-3.96C126.99-4.45 127.05-4.89 127.17-5.28C127.29-5.67 127.45-6.01 127.67-6.28C127.89-6.56 128.15-6.77 128.45-6.92C128.75-7.07 129.09-7.14 129.47-7.14C129.81-7.14 130.10-7.07 130.35-6.94C130.60-6.81 130.83-6.63 131.04-6.41L131.61-7.04C131.37-7.30 131.08-7.53 130.72-7.72C130.36-7.92 129.94-8.02 129.46-8.02C128.95-8.02 128.49-7.92 128.06-7.73C127.63-7.55 127.26-7.28 126.95-6.92C126.64-6.57 126.39-6.14 126.22-5.64C126.04-5.14 125.95-4.57 125.95-3.94ZM132.49-7.87L132.49 0L133.48 0L133.48-2.50L134.84-4.09L137.19 0L138.31 0L135.46-4.87L137.92-7.87L136.79-7.87L133.52-3.92L133.48-3.92L133.48-7.87ZM138.66-7.87L138.66 0L143.32 0L143.32-0.85L139.66-0.85L139.66-3.71L142.64-3.71L142.64-4.56L139.66-4.56L139.66-7.03L143.20-7.03L143.20-7.87ZM145.84-7.03L145.84 0L146.85 0L146.85-7.03L149.22-7.03L149.22-7.87L143.46-7.87L143.46-7.03ZM149.87-7.87L149.87 0L150.86 0L150.86-7.87ZM152.25-7.87L152.25 0L153.19 0L153.19-4.12C153.19-4.53 153.18-4.95 153.15-5.36C153.12-5.77 153.09-6.18 153.06-6.58L153.11-6.58L153.96-4.96L156.82 0L157.85 0L157.85-7.87L156.90-7.87L156.90-3.80C156.90-3.39 156.92-2.97 156.94-2.54C156.97-2.11 157.00-1.70 157.02-1.30L156.97-1.30L156.12-2.93L153.28-7.87ZM158.78-3.94C158.78-3.30 158.87-2.72 159.04-2.21C159.22-1.71 159.46-1.28 159.78-0.93C160.09-0.58 160.46-0.32 160.89-0.13C161.32 0.05 161.80 0.14 162.32 0.14C162.85 0.14 163.32 0.06 163.74-0.11C164.16-0.29 164.50-0.50 164.76-0.77L164.76-4.08L162.18-4.08L162.18-3.25L163.84-3.25L163.84-1.20C163.68-1.06 163.48-0.94 163.23-0.86C162.97-0.77 162.71-0.73 162.43-0.73C162.00-0.73 161.63-0.81 161.31-0.96C160.98-1.11 160.71-1.33 160.49-1.61C160.27-1.89 160.10-2.23 159.99-2.62C159.87-3.02 159.81-3.46 159.81-3.96C159.81-4.45 159.87-4.89 160.00-5.28C160.12-5.67 160.30-6.01 160.52-6.28C160.74-6.56 161.02-6.77 161.34-6.92C161.66-7.07 162.02-7.14 162.42-7.14C162.82-7.14 163.15-7.07 163.41-6.93C163.67-6.79 163.90-6.62 164.10-6.41L164.66-7.04C164.43-7.28 164.13-7.51 163.77-7.71C163.40-7.91 162.95-8.02 162.40-8.02C161.88-8.02 161.39-7.92 160.95-7.73C160.51-7.55 160.13-7.28 159.81-6.92C159.48-6.57 159.23-6.14 159.05-5.64C158.87-5.14 158.78-4.57 158.78-3.94Z" transform="translate(-1.08, 8.016)"></path></g></g></g></g><defs v-gra="od"></defs></g></svg>