<svg xmlns="http://www.w3.org/2000/svg" xmlns:xlink="http://www.w3.org/1999/xlink" version="1.0" x="0" y="0" width="2400" height="437.2734768713194" viewBox="46.965511627197266 102.58344680786132 246.06897674560548 44.83309875488281" preserveAspectRatio="xMidYMid meet" color-interpolation-filters="sRGB"><g><defs><linearGradient id="92" x1="0%" y1="0%" x2="100%" y2="0%"><stop offset="0%" stop-color="#fa71cd"></stop> <stop offset="100%" stop-color="#9b59b6"></stop></linearGradient><linearGradient id="93" x1="0%" y1="0%" x2="100%" y2="0%"><stop offset="0%" stop-color="#f9d423"></stop> <stop offset="100%" stop-color="#f83600"></stop></linearGradient><linearGradient id="94" x1="0%" y1="0%" x2="100%" y2="0%"><stop offset="0%" stop-color="#0064d2"></stop> <stop offset="100%" stop-color="#1cb0f6"></stop></linearGradient><linearGradient id="95" x1="0%" y1="0%" x2="100%" y2="0%"><stop offset="0%" stop-color="#f00978"></stop> <stop offset="100%" stop-color="#3f51b1"></stop></linearGradient><linearGradient id="96" x1="0%" y1="0%" x2="100%" y2="0%"><stop offset="0%" stop-color="#7873f5"></stop> <stop offset="100%" stop-color="#ec77ab"></stop></linearGradient><linearGradient id="97" x1="0%" y1="0%" x2="100%" y2="0%"><stop offset="0%" stop-color="#f9d423"></stop> <stop offset="100%" stop-color="#e14fad"></stop></linearGradient><linearGradient id="98" x1="0%" y1="0%" x2="100%" y2="0%"><stop offset="0%" stop-color="#009efd"></stop> <stop offset="100%" stop-color="#2af598"></stop></linearGradient><linearGradient id="99" x1="0%" y1="0%" x2="100%" y2="0%"><stop offset="0%" stop-color="#ffcc00"></stop> <stop offset="100%" stop-color="#00b140"></stop></linearGradient><linearGradient id="100" x1="0%" y1="0%" x2="100%" y2="0%"><stop offset="0%" stop-color="#d51007"></stop> <stop offset="100%" stop-color="#ff8177"></stop></linearGradient><linearGradient id="102" x1="0%" y1="0%" x2="100%" y2="0%"><stop offset="0%" stop-color="#a2b6df"></stop> <stop offset="100%" stop-color="#0c3483"></stop></linearGradient><linearGradient id="103" x1="0%" y1="0%" x2="100%" y2="0%"><stop offset="0%" stop-color="#7ac5d8"></stop> <stop offset="100%" stop-color="#eea2a2"></stop></linearGradient><linearGradient id="104" x1="0%" y1="0%" x2="100%" y2="0%"><stop offset="0%" stop-color="#00ecbc"></stop> <stop offset="100%" stop-color="#007adf"></stop></linearGradient><linearGradient id="105" x1="0%" y1="0%" x2="100%" y2="0%"><stop offset="0%" stop-color="#b88746"></stop> <stop offset="100%" stop-color="#fdf5a6"></stop></linearGradient></defs><g fill="#333" class="iconlettersvg-g iconlettersvg" transform="translate(49.378719638392795,104.9974758150056)"><g><g class="tp-name"><g transform="scale(1)"><g transform="translate(0, 0)"><g class="name-imagesvg"><g><rect fill="#333" fill-opacity="0" stroke-width="2" x="0" y="0" width="29.253989140996573" height="40" class="image-rect"></rect> <svg x="0" y="0" width="29.253989140996573" height="40" filtersec="colorsb7541667338" class="image-svg-svg primary" style="overflow: visible;"><svg xmlns="http://www.w3.org/2000/svg" viewBox="0 0 89.22 122"><path d="M15.71 90.55h15.41V31.42H15.71A15.71 15.71 0 0 1 0 15.71v90.55a15.71 15.71 0 0 1 15.71-15.71z" fill="#00d5ff"></path><path d="M73.47 79.9a15.71 15.71 0 0 1-15.71-15.71v15.4a11 11 0 0 1-11 11H31.12v15.71a15.56 15.56 0 0 1-31 1.59A15.71 15.71 0 0 0 15.71 122H46.8a42.37 42.37 0 0 0 42.38-42.38V64.19A15.71 15.71 0 0 1 73.47 79.9z" fill="#ffd100"></path><path d="M15.56 121.82a15.56 15.56 0 0 0 15.56-15.56V90.55H15.71A15.71 15.71 0 0 0 0 106.26a10.46 10.46 0 0 0 .08 1.59 15.56 15.56 0 0 0 15.48 13.97z" fill="#45ae17"></path><path d="M46.8 0H15.71A15.71 15.71 0 0 0 .08 14.12a15.56 15.56 0 0 1 31 1.59v15.71H46.8a11 11 0 0 1 11 11v21.77a15.71 15.71 0 1 1 31.42 0V42.37A42.37 42.37 0 0 0 46.83 0z" fill="#ff009b"></path><path d="M15.71 31.42h15.41V15.71a15.56 15.56 0 0 0-31-1.59 4.81 4.81 0 0 0-.12 1.3v.29a15.71 15.71 0 0 0 15.71 15.71z" fill="#11009a"></path><circle cx="73.47" cy="64.19" r="15.71" fill="#ee2e0b"></circle></svg></svg> </g></g></g><g transform="translate(29.253989140996573, 0)"><g class="name-imagesvg"><g><rect fill="#333" fill-opacity="0" stroke-width="2" x="0" y="0" width="21.270200958212662" height="40" class="image-rect"></rect> <svg x="0" y="0" width="21.270200958212662" height="40" filtersec="colorsb4654977598" class="image-svg-svg primary" style="overflow: visible;"><svg xmlns="http://www.w3.org/2000/svg" viewBox="0 0 65.28 122.76"><path d="M32.41.4H15.74a15.71 15.71 0 0 0 0 31.42h1V16.11A15.71 15.71 0 0 1 32.41.4zm15.7 15.71v15.71h1.46a15.71 15.71 0 1 0 0-31.42H32.41a15.7 15.7 0 0 1 15.7 15.7z" fill="#f0f"></path><path d="M16.7 106.66V91h-1a15.71 15.71 0 0 0 0 31.42h16.71a15.72 15.72 0 0 1-15.71-15.76zM49.57 91h-1.46v15.71a15.71 15.71 0 0 1-15.68 15.69h17.14a15.71 15.71 0 1 0 0-31.42z" fill="#ffd100"></path><path d="M16.7 31.82h31.42V91H16.7z" fill="#00d5ff"></path><path d="M48.11 16.11a15.71 15.71 0 0 0-31.41-.8v16.51h31.41z" fill="#2300fd"></path><path d="M48.11 106.66V91H16.7v15.71a15.71 15.71 0 0 0 31.41.79c.01-.32.01-.58 0-.84z" fill="#45ae17"></path></svg></svg> </g></g></g><g transform="translate(50.524190099209235, 0)"><g class="name-imagesvg"><g><rect fill="#333" fill-opacity="0" stroke-width="2" x="0" y="0" width="29.299178827004354" height="40" class="image-rect"></rect> <svg x="0" y="0" width="29.299178827004354" height="40" filtersec="colorsb8471238767" class="image-svg-svg primary" style="overflow: visible;"><svg xmlns="http://www.w3.org/2000/svg" viewBox="0 0 89.36 122"><path d="M73.61 74A15.72 15.72 0 0 1 57.9 58.33v24a8.22 8.22 0 0 1-8.19 8.2H42.4a11 11 0 0 1-11-11v-1.15A15.71 15.71 0 0 1 0 80a13.88 13.88 0 0 1 0-1.58v1.21A42.43 42.43 0 0 0 42.4 122h7.31a39.66 39.66 0 0 0 39.61-39.65v-24A15.71 15.71 0 0 1 73.61 74z" fill="#ffd100"></path><path d="M49.71 0H42.4A42.42 42.42 0 0 0 0 42.37v36a15.71 15.71 0 0 1 31.42 0v-36a11 11 0 0 1 11-10.95h7.31a8.22 8.22 0 0 1 8.19 8.2v18.71a15.71 15.71 0 1 1 31.42 0V39.62A39.67 39.67 0 0 0 49.71 0z" fill="#00d5ff"></path><circle cx="73.61" cy="58.33" r="15.71" fill="#45ae17"></circle><ellipse cx="15.72" cy="78.58" rx="15.71" ry="16.41" fill="#45ae17"></ellipse></svg></svg> </g></g></g><g transform="translate(79.82336892621359, 0)"><g class="name-imagesvg"><g><rect fill="#333" fill-opacity="0" stroke-width="2" x="0" y="0" width="35.193023198408596" height="40" class="image-rect"></rect> <svg x="0" y="0" width="35.193023198408596" height="40" filtersec="colorsb3640353962" class="image-svg-svg primary" style="overflow: visible;"><svg xmlns="http://www.w3.org/2000/svg" viewBox="0 0 108.23 122.99"><path d="M0 15.62v90.69a15.71 15.71 0 0 0 31.42 0V58.88l-28-33.45A15.63 15.63 0 0 1 0 15.62z" fill="#00d5ff"></path><path d="M108.23 15.76a15.71 15.71 0 1 0-31.42 0v48.38l27.92 33.32a15.61 15.61 0 0 1 3.27 11.15 16.09 16.09 0 0 0 .19-2.3z" fill="#f0f"></path><path d="M92.52 122a15.71 15.71 0 0 1-15.71-15.71V64.14L28 6A15.71 15.71 0 0 0 .08 14.13a15.71 15.71 0 0 1 31.34 1.63v43.12L80.09 117a15.7 15.7 0 0 0 28-8.34A15.71 15.71 0 0 1 92.52 122z" fill="#ffd100"></path><path d="M15.71.05A15.72 15.72 0 0 0 .08 14.13v.13A12.26 12.26 0 0 0 0 15.62a15.65 15.65 0 0 0 3.38 9.81l28 33.45V15.76A15.71 15.71 0 0 0 15.71.05z" fill="#45ae17"></path><path d="M104.73 97.46L76.81 64.14v42.17a15.66 15.66 0 1 0 27.92-8.85z" fill="#ee2e0b"></path></svg></svg> </g></g></g><g transform="translate(115.01639212462219, 0)"><g class="name-imagesvg"><g><rect fill="#333" fill-opacity="0" stroke-width="2" x="0" y="0" width="29.28589068066684" height="40" class="image-rect"></rect> <svg x="0" y="0" width="29.28589068066684" height="40" filtersec="colorsb1508420109" class="image-svg-svg primary" style="overflow: visible;"><svg xmlns="http://www.w3.org/2000/svg" viewBox="0 0 89.3 121.97"><path d="M49.69 49.7h-7.31a11 11 0 0 1-11-11v-23A15.69 15.69 0 1 0 0 15.71v23a42.42 42.42 0 0 0 42.38 42.41h7.31a40.23 40.23 0 0 0 8.19-.85V41.51a8.19 8.19 0 0 1-8.19 8.19z" fill="#00d5ff"></path><path d="M29.43 106.26a15.71 15.71 0 0 1 15.71-15.71H15.71a15.71 15.71 0 0 0 0 31.42h29.43a15.73 15.73 0 0 1-15.71-15.71z" fill="#ffd100"></path><path d="M73.59 0a15.71 15.71 0 0 0-15.71 15.71v11.52a15.71 15.71 0 1 1 31.42 0v14.28a39.68 39.68 0 0 1-31.42 38.76v2.08a8.21 8.21 0 0 1-8.19 8.2h-4.55a15.71 15.71 0 0 1 0 31.42h4.55A39.66 39.66 0 0 0 89.3 82.35V15.71A15.71 15.71 0 0 0 73.59 0z" fill="#f0f"></path><path d="M89.3 41.51V27.23a15.71 15.71 0 1 0-31.42 0v53A39.67 39.67 0 0 0 89.3 41.51z" fill="#2300fd"></path><circle cx="45.14" cy="106.26" r="15.71" fill="#ee2e0b"></circle></svg></svg> </g></g></g><g transform="translate(144.30228280528902, 0)"><g class="name-imagesvg"><g><rect fill="#333" fill-opacity="0" stroke-width="2" x="0" y="0" width="33.81149536270003" height="40" class="image-rect"></rect> <svg x="0" y="0" width="33.81149536270003" height="40" filtersec="colorsb8253564266" class="image-svg-svg primary" style="overflow: visible;"><svg xmlns="http://www.w3.org/2000/svg" viewBox="0 0 102.84 121.68"><path d="M39.4 60.84A15.55 15.55 0 0 1 55 45.28H38.85a7.08 7.08 0 1 1-.53-14.15h38.53A15.56 15.56 0 0 0 76.82 0h-38a38.2 38.2 0 0 0-1.24 76.4H55a15.56 15.56 0 0 1-15.6-15.56z" fill="#ffd100"></path><path d="M44.11 106.12a15.55 15.55 0 0 1 15.54-15.56h-33a15.56 15.56 0 0 0 0 31.12h33a15.57 15.57 0 0 1-15.54-15.56z" fill="#f0f"></path><path d="M64.65 45.28H55a15.56 15.56 0 0 1 0 31.12h9.68a7.08 7.08 0 0 1 0 14.16h-5a15.56 15.56 0 0 1 0 31.12h5a38.2 38.2 0 0 0 0-76.4z" fill="#00d5ff"></path><path d="M70.52 60.84A15.56 15.56 0 1 0 55 76.4a15.56 15.56 0 0 0 15.52-15.56z" fill="#45ae17"></path><path d="M75.22 106.12a15.56 15.56 0 1 0-15.57 15.56 15.56 15.56 0 0 0 15.57-15.56z" fill="#2300fd"></path></svg></svg> </g></g></g><g transform="translate(178.11377816798904, 0)"><g class="name-imagesvg"><g><rect fill="#333" fill-opacity="0" stroke-width="2" x="0" y="0" width="29.311640012782355" height="40" class="image-rect"></rect> <svg x="0" y="0" width="29.311640012782355" height="40" filtersec="colorsb8839372124" class="image-svg-svg primary" style="overflow: visible;"><svg xmlns="http://www.w3.org/2000/svg" viewBox="0 0 89.4 122"><path d="M15.81 43.76a15.71 15.71 0 0 1 15.71 15.71V15.71a15.71 15.71 0 0 0-31.42 0v43.76a15.71 15.71 0 0 1 15.71-15.71z" fill="#f0f"></path><path d="M73.69 0A15.71 15.71 0 0 0 58 15.71v66.64a8.22 8.22 0 0 1-8.19 8.2h-5a15.71 15.71 0 0 1 0 31.42h5A39.66 39.66 0 0 0 89.4 82.35V15.71A15.71 15.71 0 0 0 73.69 0z" fill="#00d5ff"></path><path d="M29 106.26a15.71 15.71 0 0 1 15.75-15.71h-2.27a11 11 0 0 1-11-11V59.47A15.71 15.71 0 1 1 .1 61.05a13.88 13.88 0 0 1 0-1.58v20.12A42.43 42.43 0 0 0 42.48 122h2.27A15.71 15.71 0 0 1 29 106.29z" fill="#ffd100"></path><path d="M15.81 76a16.1 16.1 0 0 0 0-32.2A16 16 0 0 0 0 59.87 16 16 0 0 0 15.81 76z" fill="#ee2e0b"></path><circle cx="44.75" cy="106.25" r="15.71" fill="#45ae17"></circle></svg></svg> </g></g></g><g transform="translate(207.4254181807714, 0)"><g class="name-imagesvg"><g><rect fill="#333" fill-opacity="0" stroke-width="2" x="0" y="0" width="33.81149536270003" height="40" class="image-rect"></rect> <svg x="0" y="0" width="33.81149536270003" height="40" filtersec="colorsb2933637951" class="image-svg-svg primary" style="overflow: visible;"><svg xmlns="http://www.w3.org/2000/svg" viewBox="0 0 102.84 121.68"><path d="M39.4 60.84A15.55 15.55 0 0 1 55 45.28H38.85a7.08 7.08 0 1 1-.53-14.15h38.53A15.56 15.56 0 0 0 76.82 0h-38a38.2 38.2 0 0 0-1.24 76.4H55a15.56 15.56 0 0 1-15.6-15.56z" fill="#ffd100"></path><path d="M44.11 106.12a15.55 15.55 0 0 1 15.54-15.56h-33a15.56 15.56 0 0 0 0 31.12h33a15.57 15.57 0 0 1-15.54-15.56z" fill="#f0f"></path><path d="M64.65 45.28H55a15.56 15.56 0 0 1 0 31.12h9.68a7.08 7.08 0 0 1 0 14.16h-5a15.56 15.56 0 0 1 0 31.12h5a38.2 38.2 0 0 0 0-76.4z" fill="#00d5ff"></path><path d="M70.52 60.84A15.56 15.56 0 1 0 55 76.4a15.56 15.56 0 0 0 15.52-15.56z" fill="#45ae17"></path><path d="M75.22 106.12a15.56 15.56 0 1 0-15.57 15.56 15.56 15.56 0 0 0 15.57-15.56z" fill="#2300fd"></path></svg></svg> </g></g></g></g></g></g> </g><defs v-gra="od"></defs></g></svg>